<?xml version="1.0" encoding="UTF-8"?>
<svg id="_レイヤー_1" data-name="レイヤー 1" xmlns="http://www.w3.org/2000/svg" viewBox="0 0 640 640">
  <defs>
    <style>
      .cls-1 {
        fill: #212121;
      }

      .cls-2 {
        fill: #eee;
      }
    </style>
  </defs>
  <rect class="cls-2" width="640" height="640" rx="120" ry="120"/>
  <path class="cls-1" d="M474.12,514.6l-118.22-118.22,45.34-45.34,118.22,118.22-45.34,45.34ZM176.14,514.6l-45.34-45.34,148.99-148.99-36.71-36.71-15.11,15.11-27.53-27.53v44.26l-15.11,15.11-65.32-65.32,15.11-15.11h44.26l-26.99-26.99,76.65-76.65c7.2-7.2,14.93-12.42,23.21-15.65s16.73-4.86,25.37-4.86,17.09,1.62,25.37,4.86,16.01,8.46,23.21,15.65l-49.66,49.66,26.99,26.99-15.11,15.11,36.71,36.71,48.58-48.58c-1.44-3.96-2.61-8.1-3.51-12.42-.9-4.32-1.35-8.64-1.35-12.96,0-21.23,7.29-39.14,21.86-53.71,14.57-14.57,32.48-21.86,53.71-21.86,5.4,0,10.53.54,15.38,1.62,4.86,1.08,9.81,2.7,14.84,4.86l-53.44,53.44,38.87,38.87,53.44-53.44c2.52,5.04,4.23,9.99,5.13,14.84s1.35,9.99,1.35,15.38c0,21.23-7.29,39.14-21.86,53.71-14.57,14.57-32.48,21.86-53.71,21.86-4.32,0-8.64-.36-12.96-1.08s-8.46-1.98-12.42-3.78l-242.91,242.91Z"/>
</svg>