<?xml version="1.0" encoding="UTF-8"?>
<svg id="_レイヤー_2" data-name="レイヤー 2" xmlns="http://www.w3.org/2000/svg" viewBox="0 0 910 550">
  <defs>
    <style>
      .cls-1 {
        fill: #ff5722;
      }

      .cls-2 {
        fill: #212121;
      }

      .cls-3 {
        fill: #fff;
      }

      .cls-4 {
        fill: #ff0;
      }

      .cls-5 {
        fill: red;
      }
    </style>
  </defs>
  <g id="_レイヤー_1-2" data-name="レイヤー 1">
    <g>
      <rect id="p0032_m" data-name="p0032 m" class="cls-3" width="910" height="550" rx="16" ry="16"/>
      <path d="M30,519.3v-43.65h6.5v21.74c1.19-1.35,2.38-2.69,3.57-4.01,1.19-1.33,2.39-2.68,3.6-4.04l12.42-13.68h8.23l-17.23,18.9,17.37,24.76h-7.62l-14.21-20.33-6.15,6.8v13.54h-6.5Z"/>
      <path d="M71.66,483.03c-1.09,0-2.02-.37-2.77-1.1-.75-.73-1.13-1.63-1.13-2.68s.38-1.98,1.13-2.71c.75-.73,1.67-1.1,2.77-1.1s2.02.37,2.78,1.1,1.14,1.64,1.14,2.71-.38,1.95-1.14,2.68-1.69,1.1-2.78,1.1ZM68.58,519.3v-30.94h6.18v30.94h-6.18Z"/>
      <path d="M81.74,519.3v-30.94h6.01v5.19c.96-1.91,2.26-3.36,3.9-4.34s3.42-1.46,5.33-1.46c2.11,0,3.96.54,5.55,1.61,1.59,1.07,2.71,2.44,3.35,4.1.84-1.68,2.11-3.05,3.82-4.12,1.71-1.06,3.71-1.6,5.99-1.6,1.91,0,3.65.42,5.21,1.26,1.56.84,2.8,2.08,3.72,3.74.92,1.65,1.38,3.72,1.38,6.2v20.36h-6.21v-19.83c0-2.21-.62-3.81-1.85-4.8s-2.69-1.49-4.37-1.49c-2.07,0-3.7.64-4.89,1.92-1.19,1.28-1.79,2.91-1.79,4.88v19.34h-6.09v-20.24c0-1.78-.57-3.2-1.71-4.28s-2.59-1.61-4.35-1.61-3.38.63-4.76,1.9-2.07,3.12-2.07,5.57v18.66h-6.18Z"/>
      <path d="M136.05,483.03c-1.09,0-2.02-.37-2.77-1.1-.75-.73-1.13-1.63-1.13-2.68s.38-1.98,1.13-2.71c.75-.73,1.67-1.1,2.77-1.1s2.02.37,2.78,1.1,1.14,1.64,1.14,2.71-.38,1.95-1.14,2.68-1.69,1.1-2.78,1.1ZM132.98,519.3v-30.94h6.18v30.94h-6.18Z"/>
      <path d="M152.31,501.48v17.81h-6.18v-30.94h6.06v4.66c2.11-3.52,5.22-5.27,9.35-5.27,2.13,0,4.04.46,5.73,1.39,1.69.93,3.02,2.3,4,4.12.98,1.82,1.46,4.07,1.46,6.77v19.28h-6.18v-18.52c0-2.48-.6-4.35-1.79-5.61-1.19-1.26-2.85-1.89-4.98-1.89s-3.88.65-5.32,1.95-2.15,3.38-2.15,6.25Z"/>
      <path d="M193.01,520c-2.95,0-5.54-.68-7.76-2.05s-3.96-3.26-5.2-5.68c-1.24-2.42-1.86-5.21-1.86-8.38s.62-6.02,1.86-8.45c1.24-2.43,2.97-4.34,5.2-5.71s4.81-2.07,7.76-2.07,5.53.69,7.75,2.07c2.22,1.38,3.94,3.28,5.19,5.71,1.24,2.43,1.86,5.25,1.86,8.45s-.62,5.96-1.86,8.38c-1.24,2.42-2.97,4.32-5.19,5.68-2.22,1.37-4.8,2.05-7.75,2.05ZM193.01,514.67c2.66,0,4.75-.98,6.27-2.93s2.29-4.57,2.29-7.85-.77-5.97-2.3-7.94c-1.53-1.97-3.62-2.96-6.25-2.96s-4.72.98-6.25,2.94c-1.53,1.96-2.3,4.61-2.3,7.95s.76,5.92,2.29,7.87,3.61,2.92,6.27,2.92Z"/>
      <path d="M213.28,519.3v-30.94h5.92v5.01h.12c.57-1.7,1.46-3.02,2.68-3.97,1.22-.95,2.82-1.42,4.79-1.42.47,0,.9.02,1.29.06.39.04.71.07.97.09v5.77c-.23-.06-.65-.12-1.26-.19-.61-.07-1.27-.1-1.99-.1-1.74,0-3.23.61-4.47,1.82-1.24,1.21-1.86,3.08-1.86,5.6v18.28h-6.18Z"/>
      <path d="M236.84,483.03c-1.09,0-2.02-.37-2.77-1.1-.75-.73-1.13-1.63-1.13-2.68s.38-1.98,1.13-2.71c.75-.73,1.67-1.1,2.77-1.1s2.02.37,2.78,1.1,1.14,1.64,1.14,2.71-.38,1.95-1.14,2.68-1.69,1.1-2.78,1.1ZM233.76,519.3v-30.94h6.18v30.94h-6.18Z"/>
      <path d="M250.25,519.79c-1.13,0-2.09-.4-2.89-1.19s-1.19-1.76-1.19-2.92.4-2.1,1.19-2.9,1.75-1.2,2.89-1.2,2.12.4,2.92,1.2,1.19,1.77,1.19,2.9-.4,2.12-1.19,2.92-1.76,1.19-2.92,1.19Z"/>
      <path d="M260.6,519.3v-30.94h6.01v5.19c.96-1.91,2.26-3.36,3.9-4.34s3.42-1.46,5.33-1.46c2.11,0,3.96.54,5.55,1.61,1.59,1.07,2.71,2.44,3.35,4.1.84-1.68,2.11-3.05,3.82-4.12,1.71-1.06,3.71-1.6,5.99-1.6,1.91,0,3.65.42,5.21,1.26,1.56.84,2.8,2.08,3.72,3.74.92,1.65,1.38,3.72,1.38,6.2v20.36h-6.21v-19.83c0-2.21-.62-3.81-1.85-4.8s-2.69-1.49-4.37-1.49c-2.07,0-3.7.64-4.89,1.92-1.19,1.28-1.79,2.91-1.79,4.88v19.34h-6.09v-20.24c0-1.78-.57-3.2-1.71-4.28s-2.59-1.61-4.35-1.61-3.38.63-4.76,1.9-2.07,3.12-2.07,5.57v18.66h-6.18Z"/>
      <path d="M325.05,520c-3.07,0-5.7-.69-7.9-2.08s-3.89-3.3-5.07-5.73c-1.18-2.43-1.77-5.2-1.77-8.31s.62-5.94,1.85-8.38,2.93-4.36,5.1-5.76,4.66-2.09,7.47-2.09,5.47.68,7.63,2.05c2.16,1.37,3.83,3.27,5.02,5.7,1.19,2.43,1.79,5.24,1.79,8.42v1.67h-22.76c.12,2.79.92,5.05,2.42,6.77s3.6,2.58,6.31,2.58c2.03,0,3.7-.46,5.01-1.38,1.31-.92,2.18-2.11,2.61-3.57h5.95c-.37,1.99-1.2,3.75-2.48,5.27-1.28,1.52-2.88,2.71-4.8,3.56-1.92.85-4.05,1.27-6.37,1.27ZM316.46,500.81h16.67c-.25-2.46-1.12-4.41-2.61-5.84-1.48-1.44-3.4-2.15-5.74-2.15s-4.25.72-5.73,2.15c-1.48,1.44-2.34,3.38-2.59,5.84Z"/>
      <path d="M30,58.34v-23.28h2.81v11.94c.66-.73,1.32-1.45,1.98-2.17.67-.72,1.34-1.44,2.02-2.17l7.06-7.59h3.72l-9.45,10.08,9.45,13.2h-3.33l-8.06-11.28-3.39,3.66v7.62h-2.81Z"/>
      <path d="M51.28,38.62c-.5,0-.93-.18-1.28-.53-.35-.35-.53-.78-.53-1.28s.18-.93.53-1.28c.35-.35.78-.53,1.28-.53s.93.18,1.28.53c.35.35.53.78.53,1.28s-.18.93-.53,1.28c-.35.35-.78.53-1.28.53ZM49.95,58.34v-16.5h2.66v16.5h-2.66Z"/>
      <path d="M56.55,58.34v-16.5h2.59v2.67c.52-.97,1.21-1.71,2.08-2.22.86-.51,1.8-.77,2.81-.77,1.12,0,2.11.29,2.95.86.84.57,1.44,1.28,1.78,2.11.45-.84,1.12-1.55,2.02-2.12.9-.57,1.96-.85,3.19-.85,1.01,0,1.93.22,2.76.66s1.49,1.1,1.98,1.98c.49.89.74,2.01.74,3.36v10.81h-2.66v-10.81c0-1.28-.36-2.2-1.08-2.74s-1.55-.82-2.5-.82c-1.21,0-2.16.37-2.85,1.1-.69.73-1.04,1.66-1.04,2.77v10.5h-2.66v-11.09c0-.99-.33-1.78-.99-2.38-.66-.6-1.49-.9-2.49-.9-.69,0-1.34.16-1.95.48-.61.32-1.1.8-1.48,1.45s-.56,1.44-.56,2.38v10.06h-2.66Z"/>
      <path d="M84.72,38.62c-.5,0-.93-.18-1.28-.53-.35-.35-.53-.78-.53-1.28s.18-.93.53-1.28c.35-.35.78-.53,1.28-.53s.93.18,1.28.53c.35.35.53.78.53,1.28s-.18.93-.53,1.28c-.35.35-.78.53-1.28.53ZM83.39,58.34v-16.5h2.66v16.5h-2.66Z"/>
      <path d="M92.64,48.69v9.66h-2.66v-16.5h2.59v2.42c.57-.94,1.27-1.63,2.1-2.07.83-.44,1.76-.66,2.8-.66,1.11,0,2.13.24,3.05.73.92.48,1.65,1.21,2.2,2.18s.82,2.19.82,3.66v10.25h-2.66v-10.06c0-1.43-.34-2.5-1.02-3.23-.68-.72-1.64-1.09-2.88-1.09s-2.22.37-3.07,1.11c-.85.74-1.27,1.94-1.27,3.61Z"/>
      <path d="M114.3,58.72c-1.52,0-2.86-.37-4.01-1.1-1.15-.73-2.05-1.75-2.69-3.04-.64-1.29-.96-2.78-.96-4.45s.32-3.18.96-4.48c.64-1.3,1.54-2.32,2.69-3.06,1.15-.74,2.49-1.11,4.01-1.11s2.87.37,4.02,1.11c1.15.74,2.04,1.76,2.68,3.06.64,1.3.96,2.8.96,4.48s-.32,3.16-.96,4.45c-.64,1.29-1.53,2.3-2.68,3.04-1.15.73-2.48,1.1-4.02,1.1ZM114.3,56.31c1.56,0,2.78-.56,3.66-1.7.88-1.13,1.31-2.63,1.31-4.49s-.44-3.4-1.32-4.54c-.88-1.14-2.1-1.71-3.65-1.71s-2.77.57-3.65,1.7c-.88,1.14-1.32,2.65-1.32,4.55s.44,3.38,1.31,4.5,2.09,1.69,3.66,1.69Z"/>
      <path d="M125.05,58.34v-16.5h2.53v2.59h.06c.3-.85.78-1.54,1.44-2.06.66-.52,1.5-.78,2.53-.78.24,0,.46.01.66.03.2.02.36.04.46.06v2.66c-.1-.03-.3-.07-.6-.12s-.64-.07-1.02-.07c-.92,0-1.71.32-2.39.97-.68.65-1.02,1.67-1.02,3.06v10.16h-2.66Z"/>
      <path d="M136.69,38.62c-.5,0-.93-.18-1.28-.53-.35-.35-.53-.78-.53-1.28s.18-.93.53-1.28c.35-.35.78-.53,1.28-.53s.93.18,1.28.53c.35.35.53.78.53,1.28s-.18.93-.53,1.28c-.35.35-.78.53-1.28.53ZM135.36,58.34v-16.5h2.66v16.5h-2.66Z"/>
      <path d="M148.77,37.56v-2.5h17.97v2.5h-7.56v20.78h-2.81v-20.78h-7.59Z"/>
      <path d="M170.92,58.59c-1.64,0-3-.42-4.1-1.27-1.1-.84-1.65-2.09-1.65-3.73,0-.95.18-1.72.55-2.31.37-.59.86-1.06,1.48-1.4.62-.34,1.32-.6,2.11-.77.79-.18,1.59-.32,2.41-.42,1.05-.15,1.88-.25,2.48-.33.6-.07,1.03-.19,1.29-.36.25-.17.38-.46.38-.88v-.16c0-.9-.32-1.63-.96-2.22-.64-.58-1.54-.88-2.7-.88s-2.09.28-2.82.84c-.73.56-1.13,1.25-1.2,2.07h-2.7c.05-1.01.36-1.91.94-2.7.57-.79,1.35-1.41,2.34-1.87.99-.46,2.14-.69,3.44-.69,1.93,0,3.46.5,4.59,1.49,1.13,1,1.7,2.31,1.7,3.95v11.38h-2.62v-2.34h-.06c-.2.4-.49.79-.88,1.2-.39.4-.9.73-1.55,1-.65.27-1.48.4-2.48.4ZM171.3,56.22c1.08,0,1.96-.2,2.64-.59.68-.39,1.17-.9,1.48-1.52s.47-1.3.47-2.02v-2.06c-.2.19-.72.36-1.58.51-.85.15-1.76.29-2.7.43-.64.08-1.24.23-1.8.43-.57.2-1.03.49-1.38.86-.35.37-.53.87-.53,1.49,0,.77.3,1.38.91,1.81s1.44.66,2.49.66Z"/>
      <path d="M185.11,48.69v9.66h-2.66v-16.5h2.59v2.42c.57-.94,1.27-1.63,2.1-2.07.83-.44,1.76-.66,2.8-.66,1.11,0,2.13.24,3.05.73.92.48,1.65,1.21,2.2,2.18s.82,2.19.82,3.66v10.25h-2.66v-10.06c0-1.43-.34-2.5-1.02-3.23-.68-.72-1.64-1.09-2.88-1.09s-2.22.37-3.07,1.11c-.85.74-1.27,1.94-1.27,3.61Z"/>
      <path d="M201.28,38.62c-.5,0-.93-.18-1.28-.53-.35-.35-.53-.78-.53-1.28s.18-.93.53-1.28c.35-.35.78-.53,1.28-.53s.93.18,1.28.53c.35.35.53.78.53,1.28s-.18.93-.53,1.28c-.35.35-.78.53-1.28.53ZM199.95,58.34v-16.5h2.66v16.5h-2.66Z"/>
      <path d="M213.45,65.09c-1.85,0-3.42-.43-4.7-1.28-1.28-.85-2.03-2.09-2.23-3.72h2.72c.24.88.74,1.55,1.49,1.99.75.44,1.66.66,2.73.66,1.44,0,2.57-.38,3.39-1.15.82-.77,1.23-1.85,1.23-3.26v-2.5h-.02c-.6.96-1.35,1.67-2.24,2.12s-1.88.69-2.96.69c-1.43,0-2.68-.36-3.76-1.09-1.08-.72-1.91-1.73-2.51-3.02-.59-1.29-.89-2.77-.89-4.46s.3-3.19.89-4.48c.59-1.29,1.43-2.29,2.51-3.01s2.33-1.08,3.76-1.08c1.07,0,2.07.23,2.99.68s1.67,1.19,2.24,2.21h.02v-2.58h2.59v16.5c0,1.62-.34,2.93-1.01,3.92-.67.99-1.56,1.71-2.66,2.16-1.1.45-2.3.67-3.58.67ZM213.27,56.27c1.53,0,2.75-.56,3.65-1.69.9-1.12,1.35-2.62,1.35-4.48s-.45-3.36-1.35-4.49c-.9-1.13-2.12-1.7-3.65-1.7-1.43,0-2.6.53-3.51,1.58-.91,1.05-1.37,2.59-1.37,4.61s.46,3.55,1.37,4.6c.91,1.05,2.08,1.57,3.51,1.57Z"/>
      <path d="M229.67,58.59c-1.64,0-3-.42-4.1-1.27-1.1-.84-1.65-2.09-1.65-3.73,0-.95.18-1.72.55-2.31.37-.59.86-1.06,1.48-1.4.62-.34,1.32-.6,2.11-.77.79-.18,1.59-.32,2.41-.42,1.05-.15,1.88-.25,2.48-.33.6-.07,1.03-.19,1.29-.36.25-.17.38-.46.38-.88v-.16c0-.9-.32-1.63-.96-2.22-.64-.58-1.54-.88-2.7-.88s-2.09.28-2.82.84c-.73.56-1.13,1.25-1.2,2.07h-2.7c.05-1.01.36-1.91.94-2.7.57-.79,1.35-1.41,2.34-1.87.99-.46,2.14-.69,3.44-.69,1.93,0,3.46.5,4.59,1.49,1.13,1,1.7,2.31,1.7,3.95v11.38h-2.62v-2.34h-.06c-.2.4-.49.79-.88,1.2-.39.4-.9.73-1.55,1-.65.27-1.48.4-2.48.4ZM230.05,56.22c1.08,0,1.96-.2,2.64-.59.68-.39,1.17-.9,1.48-1.52s.47-1.3.47-2.02v-2.06c-.2.19-.72.36-1.58.51-.85.15-1.76.29-2.7.43-.64.08-1.24.23-1.8.43-.57.2-1.03.49-1.38.86-.35.37-.53.87-.53,1.49,0,.77.3,1.38.91,1.81s1.44.66,2.49.66Z"/>
      <path d="M244.83,58.34l-5.12-16.5h2.78l2.08,7.25c.29,1,.57,2.02.84,3.06.27,1.04.53,2.07.8,3.09.27-1.02.54-2.05.81-3.09.27-1.04.55-2.06.84-3.06l2.09-7.25h2.62l2.06,7.25c.28.99.55,2,.82,3.03s.53,2.05.8,3.05c.27-1,.54-2.02.81-3.05.27-1.03.55-2.04.84-3.03l2.12-7.25h2.78l-5.12,16.5h-2.78l-2.17-7.5c-.26-.91-.51-1.83-.75-2.77-.24-.94-.48-1.88-.73-2.8-.24.93-.48,1.86-.73,2.8-.25.94-.51,1.87-.77,2.77l-2.22,7.5h-2.72Z"/>
      <path d="M270.14,58.59c-1.64,0-3-.42-4.1-1.27-1.1-.84-1.65-2.09-1.65-3.73,0-.95.18-1.72.55-2.31.37-.59.86-1.06,1.48-1.4.62-.34,1.32-.6,2.11-.77.79-.18,1.59-.32,2.41-.42,1.05-.15,1.88-.25,2.48-.33.6-.07,1.03-.19,1.29-.36.25-.17.38-.46.38-.88v-.16c0-.9-.32-1.63-.96-2.22-.64-.58-1.54-.88-2.7-.88s-2.09.28-2.82.84c-.73.56-1.13,1.25-1.2,2.07h-2.7c.05-1.01.36-1.91.94-2.7.57-.79,1.35-1.41,2.34-1.87.99-.46,2.14-.69,3.44-.69,1.93,0,3.46.5,4.59,1.49,1.13,1,1.7,2.31,1.7,3.95v11.38h-2.62v-2.34h-.06c-.2.4-.49.79-.88,1.2-.39.4-.9.73-1.55,1-.65.27-1.48.4-2.48.4ZM270.52,56.22c1.08,0,1.96-.2,2.64-.59.68-.39,1.17-.9,1.48-1.52s.47-1.3.47-2.02v-2.06c-.2.19-.72.36-1.58.51-.85.15-1.76.29-2.7.43-.64.08-1.24.23-1.8.43-.57.2-1.03.49-1.38.86-.35.37-.53.87-.53,1.49,0,.77.3,1.38.91,1.81s1.44.66,2.49.66Z"/>
      <path d="M692.39,49.2v7.24h-1.99v-17.46h1.99v6.82c.43-.67.95-1.17,1.56-1.49s1.3-.48,2.07-.48c.84,0,1.6.18,2.29.54s1.24.91,1.65,1.63.62,1.64.62,2.74v7.69h-1.99v-7.55c0-1.07-.26-1.88-.77-2.42s-1.23-.81-2.16-.81-1.67.28-2.3.83-.96,1.46-.96,2.71Z"/>
      <path d="M708.64,56.73c-1.21,0-2.24-.28-3.1-.83s-1.51-1.32-1.96-2.29-.68-2.08-.68-3.32.24-2.38.71-3.35,1.14-1.74,1.98-2.3,1.81-.84,2.91-.84c1.15,0,2.14.27,2.99.82s1.49,1.31,1.95,2.29.69,2.11.69,3.39v.55h-9.26c.05,1.21.39,2.2,1.04,2.95s1.56,1.14,2.73,1.14c.88,0,1.6-.2,2.16-.61s.93-.93,1.12-1.57h1.99c-.16.79-.48,1.48-.97,2.08s-1.11,1.06-1.85,1.4-1.56.5-2.46.5ZM704.89,49.12h7.24c-.11-1.09-.49-1.95-1.14-2.59s-1.48-.96-2.5-.96-1.84.32-2.48.96-1.02,1.5-1.12,2.59Z"/>
      <path d="M718.39,38.98v17.46h-1.99v-17.46h1.99Z"/>
      <path d="M723.33,38.98v17.46h-1.99v-17.46h1.99Z"/>
      <path d="M731.39,56.73c-1.14,0-2.14-.28-3.01-.83s-1.54-1.31-2.02-2.28-.72-2.08-.72-3.34.24-2.39.72-3.36,1.15-1.74,2.02-2.3,1.87-.83,3.01-.83,2.15.28,3.01.83,1.53,1.32,2.01,2.3.72,2.1.72,3.36-.24,2.37-.72,3.34-1.15,1.73-2.01,2.28-1.86.83-3.01.83ZM731.39,54.92c1.17,0,2.09-.42,2.74-1.27s.98-1.97.98-3.37-.33-2.55-.99-3.4-1.57-1.28-2.74-1.28-2.08.43-2.74,1.28-.99,1.99-.99,3.41.33,2.53.98,3.38,1.57,1.27,2.74,1.27Z"/>
      <path d="M749.88,61.16c-1.59,0-3.05-.27-4.37-.8s-2.46-1.28-3.43-2.25-1.72-2.12-2.24-3.45-.79-2.79-.79-4.39.26-3.07.79-4.4,1.28-2.48,2.24-3.46,2.11-1.72,3.43-2.26,2.78-.8,4.37-.8,2.93.25,4.2.76,2.37,1.22,3.3,2.16,1.65,2.05,2.16,3.35.76,2.75.76,4.35c0,1.91-.39,3.39-1.17,4.45s-1.9,1.59-3.37,1.59c-.77,0-1.37-.13-1.8-.39s-.73-.56-.91-.9-.3-.63-.35-.87h-.01c-.21.56-.6,1.05-1.15,1.47s-1.3.63-2.22.63c-1.02,0-1.9-.27-2.64-.8s-1.3-1.23-1.69-2.1-.59-1.81-.59-2.81c0-1.11.22-2.09.67-2.95s1.05-1.54,1.82-2.03,1.61-.74,2.54-.74c.79,0,1.44.16,1.96.47s.89.65,1.11,1.01h.01v-1.21h1.88v7.62c0,1.2.5,1.8,1.5,1.8.82,0,1.44-.36,1.87-1.07s.64-1.75.64-3.11c0-1.86-.35-3.45-1.05-4.78s-1.69-2.35-2.96-3.06-2.78-1.07-4.51-1.07c-1.81,0-3.38.37-4.71,1.11s-2.35,1.79-3.06,3.15-1.08,2.97-1.08,4.84.36,3.47,1.08,4.83,1.74,2.41,3.06,3.15,2.89,1.11,4.71,1.11c1.09,0,2.05-.11,2.88-.33s1.5-.42,2.03-.61l.61,1.7c-.48.19-1.2.41-2.17.66s-2.09.38-3.35.38ZM749.55,54.2c1,0,1.76-.34,2.28-1.03s.78-1.65.78-2.91-.26-2.23-.78-2.91-1.28-1.03-2.28-1.03-1.77.34-2.32,1.01-.83,1.65-.83,2.92.28,2.25.83,2.92,1.33,1.01,2.32,1.01Z"/>
      <path d="M762.82,56.45v-17.46h1.99v10.65h.02l5.75-5.57h2.58l-5.45,5.3,5.85,7.08h-2.53l-4.84-5.82-1.38,1.25v4.57h-1.99Z"/>
      <path d="M776,41.66c-.38,0-.7-.13-.96-.4s-.4-.59-.4-.96.13-.7.4-.96.59-.4.96-.4.7.13.96.4.4.59.4.96-.13.7-.4.96-.59.4-.96.4ZM775,56.45v-12.38h1.99v12.38h-1.99Z"/>
      <path d="M779.95,56.45v-12.38h1.95v2c.39-.73.91-1.28,1.56-1.66s1.35-.57,2.11-.57c.84,0,1.58.21,2.21.64s1.08.96,1.34,1.58c.34-.63.84-1.16,1.51-1.59s1.47-.64,2.39-.64c.76,0,1.45.16,2.07.49s1.12.82,1.49,1.49.56,1.5.56,2.52v8.11h-1.99v-8.11c0-.96-.27-1.65-.81-2.06s-1.16-.62-1.88-.62c-.91,0-1.62.28-2.14.83s-.78,1.24-.78,2.08v7.88h-1.99v-8.32c0-.74-.25-1.34-.74-1.79s-1.12-.67-1.87-.67c-.52,0-1,.12-1.46.36s-.83.6-1.11,1.08-.42,1.08-.42,1.79v7.55h-1.99Z"/>
      <path d="M801.07,41.66c-.38,0-.7-.13-.96-.4s-.4-.59-.4-.96.13-.7.4-.96.59-.4.96-.4.7.13.96.4.4.59.4.96-.13.7-.4.96-.59.4-.96.4ZM800.08,56.45v-12.38h1.99v12.38h-1.99Z"/>
      <path d="M807.02,49.2v7.24h-1.99v-12.38h1.95v1.82c.43-.7.96-1.22,1.58-1.55s1.32-.5,2.1-.5c.84,0,1.6.18,2.29.54s1.24.91,1.65,1.63.62,1.64.62,2.74v7.69h-1.99v-7.55c0-1.07-.26-1.88-.77-2.42s-1.23-.81-2.16-.81-1.67.28-2.3.83-.96,1.46-.96,2.71Z"/>
      <path d="M823.26,56.73c-1.14,0-2.14-.28-3.01-.83s-1.54-1.31-2.02-2.28-.72-2.08-.72-3.34.24-2.39.72-3.36,1.15-1.74,2.02-2.3,1.87-.83,3.01-.83,2.15.28,3.01.83,1.53,1.32,2.01,2.3.72,2.1.72,3.36-.24,2.37-.72,3.34-1.15,1.73-2.01,2.28-1.86.83-3.01.83ZM823.26,54.92c1.17,0,2.09-.42,2.74-1.27s.98-1.97.98-3.37-.33-2.55-.99-3.4-1.57-1.28-2.74-1.28-2.08.43-2.74,1.28-.99,1.99-.99,3.41.33,2.53.98,3.38,1.57,1.27,2.74,1.27Z"/>
      <path d="M831.32,56.45v-12.38h1.9v1.95h.05c.23-.64.59-1.16,1.08-1.55s1.12-.59,1.9-.59c.18,0,.35,0,.5.02s.27.03.35.05v1.99c-.08-.02-.23-.05-.45-.09s-.48-.05-.77-.05c-.69,0-1.29.24-1.79.73s-.76,1.25-.76,2.3v7.62h-1.99Z"/>
      <path d="M840.05,41.66c-.38,0-.7-.13-.96-.4s-.4-.59-.4-.96.13-.7.4-.96.59-.4.96-.4.7.13.96.4.4.59.4.96-.13.7-.4.96-.59.4-.96.4ZM839.05,56.45v-12.38h1.99v12.38h-1.99Z"/>
      <path d="M845.16,56.64c-.41,0-.75-.14-1.04-.43s-.43-.63-.43-1.04.14-.76.43-1.04.63-.42,1.04-.42.76.14,1.04.42.42.63.42,1.04-.14.75-.42,1.04-.63.43-1.04.43Z"/>
      <path d="M849.27,56.45v-12.38h1.95v2c.39-.73.91-1.28,1.56-1.66s1.35-.57,2.11-.57c.84,0,1.58.21,2.21.64s1.08.96,1.34,1.58c.34-.63.84-1.16,1.51-1.59s1.47-.64,2.39-.64c.76,0,1.45.16,2.07.49s1.12.82,1.49,1.49.56,1.5.56,2.52v8.11h-1.99v-8.11c0-.96-.27-1.65-.81-2.06s-1.16-.62-1.88-.62c-.91,0-1.62.28-2.14.83s-.78,1.24-.78,2.08v7.88h-1.99v-8.32c0-.74-.25-1.34-.74-1.79s-1.12-.67-1.87-.67c-.52,0-1,.12-1.46.36s-.83.6-1.11,1.08-.42,1.08-.42,1.79v7.55h-1.99Z"/>
      <path d="M874.52,56.73c-1.21,0-2.24-.28-3.1-.83s-1.51-1.32-1.96-2.29-.68-2.08-.68-3.32.24-2.38.71-3.35,1.14-1.74,1.98-2.3,1.81-.84,2.91-.84c1.15,0,2.14.27,2.99.82s1.49,1.31,1.95,2.29.69,2.11.69,3.39v.55h-9.26c.05,1.21.39,2.2,1.04,2.95s1.56,1.14,2.73,1.14c.88,0,1.6-.2,2.16-.61s.93-.93,1.12-1.57h1.99c-.16.79-.48,1.48-.97,2.08s-1.11,1.06-1.85,1.4-1.56.5-2.46.5ZM870.77,49.12h7.24c-.11-1.09-.49-1.95-1.14-2.59s-1.48-.96-2.5-.96-1.84.32-2.48.96-1.02,1.5-1.12,2.59Z"/>
      <path id="_パス_1" data-name="パス 1" class="cls-5" d="M800.36,443.64c-.05-.24-.1-.48-.16-.72.21.07.42.14.63.21-.16.17-.31.33-.47.51Z"/>
      <path id="_パス_2" data-name="パス 2" class="cls-5" d="M800.36,443.64c-.05-.24-.1-.48-.16-.72.21.07.42.14.63.21-.16.17-.31.33-.47.51Z"/>
      <path id="_パス_3" data-name="パス 3" class="cls-1" d="M762.77,422.08c5.01-14.7,21-22.55,35.7-17.54,11.34,3.87,18.99,14.5,19.04,26.48v.13c0,6.54-2.27,12.88-6.45,17.92,13.3,11.47,14.79,31.55,3.32,44.85-5.41,6.28-13.06,10.19-21.32,10.91,2.65,4.87,6.05,9.29,10.06,13.11,1.82,1.73,4.38,2.43,6.82,1.86,14.49-3.37,27.96-10.17,39.27-19.83,1.83-1.56,3.6-3.18,5.3-4.88,12.73-12.65,21.53-28.71,25.33-46.25.52-2.46-.23-5.01-1.99-6.8-3.04-3.1-6.45-5.82-10.16-8.09l-.24-.14c-.42-.25-.72-.66-.84-1.14-2.76-10.83-7.92-20.9-15.11-29.46-.66-.78-.57-1.95.21-2.61.08-.07.16-.13.25-.18,2.76-1.64,5.66-3.05,8.65-4.21.96-.36,1.44-1.44,1.08-2.4-.03-.08-.07-.16-.11-.23-.55-.98-1.11-1.94-1.71-2.89-17.3-27.51-53.64-35.79-81.15-18.48-4.24,2.66-8.12,5.86-11.54,9.5-7.81,8.12-13.03,18.39-14.97,29.49-.77,4.72.31,8.11.5,8.21"/>
      <path id="_パス_4" data-name="パス 4" class="cls-5" d="M800.83,443.13c-.16.17-.31.34-.47.51-.05-.24-.1-.48-.16-.72.21.07.42.14.63.21h0Z"/>
      <path id="_パス_5" data-name="パス 5" class="cls-3" d="M789.39,403.03c-12.03,0-22.73,7.66-26.62,19.05,5.02,2.61,9.22,6.57,12.12,11.44,4.19,7.05,5.35,15.48,3.22,23.4h0c3.56,1.56,7.4,2.36,11.28,2.36.38,0,.77,0,1.15-.03,15.07-.61,26.97-13.01,26.97-28.09v-.13c-.07-15.48-12.64-28-28.12-27.99Z"/>
      <path id="_パス_7" data-name="パス 7" class="cls-4" d="M778.65,443.54c-.65-3.54-1.92-6.94-3.76-10.03-2.9-4.87-7.09-8.83-12.12-11.44-2.99-1.56-6.22-2.6-9.55-3.08-.47-.07-.94,0-1.37.2h0c-.18.08-.36.17-.54.25-.01,0-.03.01-.04.02-3.49,1.67-6.68,3.92-9.44,6.64-.22.22-.43.43-.65.65-1.47,1.54-2.72,3.29-3.7,5.18-2.14,4.1-3.96,8.35-5.46,12.72-.39,1.15-.56,1.59-.61,1.71-.1.35-.28,1-.63,2.19-2.08,7.06-3.31,14.35-3.66,21.71-.08,1.53-.12,3.08-.12,4.63,0,.89.01,1.77.04,2.65.02,1.03.87,1.84,1.9,1.82.29,0,.58-.08.84-.22,1.97-1.07,4.04-1.95,6.18-2.63,1.8-.57,3.64-.99,5.5-1.26,5.6-.81,11.31-.27,16.65,1.57.37.13.63.45.69.83h0c.26-.09.53-.19.78-.28h0c1.57-.6,3.09-1.32,4.54-2.18,3.19-1.87,6.01-4.3,8.32-7.18h0c.12-.15.24-.3.36-.45,2.27-2.93,3.98-6.24,5.04-9.79h0c.09-.29.17-.59.25-.88h0c1.17-4.36,1.35-8.93.54-13.37h0Z"/>
      <path id="_パス_8" data-name="パス 8" class="cls-2" d="M822.09,473.15c.01,16.49-12.6,30.25-29.03,31.68-.92.08-1.84.12-2.78.12-3.09,0-6.16-.45-9.12-1.33h0c-9.17-2.76-16.62-9.49-20.28-18.34-1.01-2.44-1.7-4.99-2.07-7.61.26-.09.53-.19.78-.28h0c1.57-.6,3.09-1.32,4.54-2.18,3.19-1.87,6.01-4.3,8.32-7.18h0c.12-.15.24-.3.36-.45,2.27-2.93,3.98-6.24,5.04-9.79h0c.09-.29.18-.59.25-.88,3.56,1.56,7.4,2.36,11.28,2.35.38,0,.77,0,1.15-.03,7.98-.31,15.44-4.01,20.52-10.17,7.01,6.03,11.04,14.83,11.03,24.08h0Z"/>
      <path id="_パス_9" data-name="パス 9" class="cls-2" d="M804.85,424.26h-26.44c-.62,0-1.12.5-1.12,1.11h0v.3c0,.62.5,1.12,1.11,1.12h3.73v6.23c.05,5.24,4.35,9.45,9.59,9.39,5.17-.05,9.34-4.23,9.39-9.39v-6.23h3.73c.62,0,1.12-.5,1.12-1.11h0v-.3c0-.62-.5-1.12-1.11-1.12h0Z"/>
      <circle id="_楕円形_1" data-name="楕円形 1" class="cls-2" cx="751.51" cy="430.43" r="1.5"/>
      <circle id="_楕円形_2" data-name="楕円形 2" class="cls-3" cx="796.14" cy="430.42" r="1.68"/>
      <path d="M36.93,113.66c-1.54,0-2.91-.39-4.1-1.16s-2.13-1.84-2.81-3.19-1.02-2.9-1.02-4.65.34-3.31,1.02-4.67,1.62-2.42,2.81-3.19,2.56-1.16,4.1-1.16,2.92.39,4.11,1.16,2.13,1.84,2.81,3.19,1.02,2.91,1.02,4.67-.34,3.29-1.02,4.65-1.62,2.42-2.81,3.19-2.56,1.16-4.11,1.16ZM36.93,111.69c1.05,0,2.02-.27,2.91-.81s1.59-1.34,2.12-2.38.8-2.32.8-3.83-.27-2.8-.8-3.85-1.24-1.85-2.12-2.39-1.85-.81-2.91-.81-2.02.27-2.91.81-1.59,1.34-2.12,2.39-.8,2.33-.8,3.85.27,2.79.8,3.83,1.24,1.84,2.12,2.38,1.85.81,2.91.81Z"/>
      <path d="M51.71,113.66c-.88,0-1.68-.14-2.4-.43s-1.3-.73-1.75-1.32-.7-1.33-.75-2.23h1.97c.14,1.52,1.1,2.27,2.88,2.27.86,0,1.54-.18,2.03-.54s.74-.81.74-1.36c0-.47-.17-.84-.52-1.12s-.79-.48-1.35-.61l-1.99-.47c-2.33-.55-3.49-1.72-3.49-3.52,0-.7.19-1.33.57-1.87s.91-.97,1.58-1.28,1.46-.46,2.34-.46,1.63.16,2.31.49,1.23.78,1.63,1.38.62,1.3.64,2.12h-1.95c0-.66-.25-1.2-.73-1.63s-1.11-.64-1.91-.64-1.36.18-1.82.55-.68.82-.68,1.35c0,.47.17.85.52,1.13s.81.5,1.41.64l1.99.47c1.19.28,2.06.7,2.61,1.26s.83,1.28.83,2.17c0,.77-.21,1.42-.62,1.97s-.98.96-1.69,1.25-1.52.43-2.42.43Z"/>
      <path d="M62.56,113.56c-1.23,0-2.25-.32-3.08-.95s-1.24-1.57-1.24-2.8c0-.71.14-1.29.42-1.73s.65-.79,1.11-1.05.99-.45,1.58-.58,1.19-.24,1.81-.32c.79-.11,1.41-.19,1.86-.25s.78-.14.97-.27.29-.34.29-.66v-.12c0-.67-.24-1.23-.72-1.66s-1.15-.66-2.02-.66-1.56.21-2.12.63-.85.94-.9,1.55h-2.03c.04-.76.27-1.43.7-2.02s1.02-1.06,1.76-1.4,1.6-.52,2.58-.52c1.45,0,2.59.37,3.44,1.12s1.27,1.73,1.27,2.96v8.53h-1.97v-1.76h-.05c-.15.3-.37.6-.66.9s-.68.55-1.17.75-1.11.3-1.86.3ZM62.84,111.78c.81,0,1.47-.15,1.98-.44s.88-.67,1.11-1.14.35-.97.35-1.51v-1.55c-.15.14-.54.27-1.18.38s-1.32.22-2.03.32c-.48.06-.93.17-1.35.32s-.77.37-1.04.64-.4.65-.4,1.12c0,.58.23,1.03.69,1.36s1.08.49,1.87.49Z"/>
      <path d="M71.21,113.38v-17.46h1.99v10.65h.02l5.75-5.57h2.58l-5.45,5.3,5.85,7.08h-2.53l-4.84-5.82-1.38,1.25v4.57h-1.99Z"/>
      <path d="M87.16,113.56c-1.23,0-2.25-.32-3.08-.95s-1.24-1.57-1.24-2.8c0-.71.14-1.29.42-1.73s.65-.79,1.11-1.05.99-.45,1.58-.58,1.19-.24,1.81-.32c.79-.11,1.41-.19,1.86-.25s.78-.14.97-.27.29-.34.29-.66v-.12c0-.67-.24-1.23-.72-1.66s-1.15-.66-2.02-.66-1.56.21-2.12.63-.85.94-.9,1.55h-2.03c.04-.76.27-1.43.7-2.02s1.02-1.06,1.76-1.4,1.6-.52,2.58-.52c1.45,0,2.59.37,3.44,1.12s1.27,1.73,1.27,2.96v8.53h-1.97v-1.76h-.05c-.15.3-.37.6-.66.9s-.68.55-1.17.75-1.11.3-1.86.3ZM87.44,111.78c.81,0,1.47-.15,1.98-.44s.88-.67,1.11-1.14.35-.97.35-1.51v-1.55c-.15.14-.54.27-1.18.38s-1.32.22-2.03.32c-.48.06-.93.17-1.35.32s-.77.37-1.04.64-.4.65-.4,1.12c0,.58.23,1.03.69,1.36s1.08.49,1.87.49Z"/>
      <path d="M107.97,95.09l-5.62,20.91h-1.85l5.62-20.91h1.85Z"/>
      <path d="M120.17,113.61c-1.52,0-2.75-.45-3.71-1.35s-1.44-2.18-1.44-3.86v-.94h2.11v.94c0,1.09.28,1.91.84,2.48s1.29.85,2.21.85,1.65-.28,2.21-.85.84-1.39.84-2.48v-12.49h2.11v12.49c0,1.67-.48,2.96-1.44,3.86s-2.2,1.35-3.71,1.35Z"/>
      <path d="M132.22,113.56c-1.23,0-2.25-.32-3.08-.95s-1.24-1.57-1.24-2.8c0-.71.14-1.29.42-1.73s.65-.79,1.11-1.05.99-.45,1.58-.58,1.19-.24,1.81-.32c.79-.11,1.41-.19,1.86-.25s.78-.14.97-.27.29-.34.29-.66v-.12c0-.67-.24-1.23-.72-1.66s-1.15-.66-2.02-.66-1.56.21-2.12.63-.85.94-.9,1.55h-2.03c.04-.76.27-1.43.7-2.02s1.02-1.06,1.76-1.4,1.6-.52,2.58-.52c1.45,0,2.59.37,3.44,1.12s1.27,1.73,1.27,2.96v8.53h-1.97v-1.76h-.05c-.15.3-.37.6-.66.9s-.68.55-1.17.75-1.11.3-1.86.3ZM132.5,111.78c.81,0,1.47-.15,1.98-.44s.88-.67,1.11-1.14.35-.97.35-1.51v-1.55c-.15.14-.54.27-1.18.38s-1.32.22-2.03.32c-.48.06-.93.17-1.35.32s-.77.37-1.04.64-.4.65-.4,1.12c0,.58.23,1.03.69,1.36s1.08.49,1.87.49Z"/>
      <path d="M140.87,118.27v-17.27h1.95v1.83h.02c.4-.7.95-1.21,1.65-1.55s1.46-.51,2.26-.51c1.08,0,2.02.27,2.82.81s1.43,1.29,1.88,2.26.67,2.08.67,3.36-.22,2.38-.67,3.35-1.07,1.72-1.88,2.26-1.75.81-2.82.81c-.8,0-1.54-.17-2.2-.52s-1.22-.88-1.66-1.59h-.02v6.77h-1.99ZM146.45,111.82c1.07,0,1.95-.39,2.63-1.18s1.03-1.94,1.03-3.45-.34-2.67-1.03-3.46-1.56-1.18-2.63-1.18c-1.15,0-2.06.42-2.74,1.27s-1.01,1.97-1.01,3.37.34,2.52,1.01,3.36,1.59,1.27,2.74,1.27Z"/>
      <path d="M158.33,113.56c-1.23,0-2.25-.32-3.08-.95s-1.24-1.57-1.24-2.8c0-.71.14-1.29.42-1.73s.65-.79,1.11-1.05.99-.45,1.58-.58,1.19-.24,1.81-.32c.79-.11,1.41-.19,1.86-.25s.78-.14.97-.27.29-.34.29-.66v-.12c0-.67-.24-1.23-.72-1.66s-1.15-.66-2.02-.66-1.56.21-2.12.63-.85.94-.9,1.55h-2.03c.04-.76.27-1.43.7-2.02s1.02-1.06,1.76-1.4,1.6-.52,2.58-.52c1.45,0,2.59.37,3.44,1.12s1.27,1.73,1.27,2.96v8.53h-1.97v-1.76h-.05c-.15.3-.37.6-.66.9s-.68.55-1.17.75-1.11.3-1.86.3ZM158.61,111.78c.81,0,1.47-.15,1.98-.44s.88-.67,1.11-1.14.35-.97.35-1.51v-1.55c-.15.14-.54.27-1.18.38s-1.32.22-2.03.32c-.48.06-.93.17-1.35.32s-.77.37-1.04.64-.4.65-.4,1.12c0,.58.23,1.03.69,1.36s1.08.49,1.87.49Z"/>
      <path d="M168.97,106.13v7.24h-1.99v-12.38h1.95v1.82c.43-.7.96-1.22,1.58-1.55s1.32-.5,2.1-.5c.84,0,1.6.18,2.29.54s1.24.91,1.65,1.63.62,1.64.62,2.74v7.69h-1.99v-7.55c0-1.07-.26-1.88-.77-2.42s-1.23-.81-2.16-.81-1.67.28-2.3.83-.96,1.46-.96,2.71Z"/>
    </g>
  </g>
</svg>