<?xml version="1.0" encoding="UTF-8"?>
<svg id="_レイヤー_1" data-name="レイヤー 1" xmlns="http://www.w3.org/2000/svg" viewBox="0 0 640 640">
  <defs>
    <style>
      .cls-1 {
        fill: #212121;
      }

      .cls-2 {
        fill: #eee;
      }
    </style>
  </defs>
  <rect class="cls-2" width="640" height="640" rx="120" ry="120"/>
  <path class="cls-1" d="M120,310l100-180,100,180H120ZM220,510c-22,0-40.83-7.83-56.5-23.5-15.67-15.67-23.5-34.5-23.5-56.5s7.83-41.25,23.5-56.75c15.67-15.5,34.5-23.25,56.5-23.25s40.83,7.83,56.5,23.5,23.5,34.5,23.5,56.5-7.83,40.83-23.5,56.5-34.5,23.5-56.5,23.5ZM220,470c11,0,20.42-3.92,28.25-11.75s11.75-17.25,11.75-28.25-3.92-20.42-11.75-28.25-17.25-11.75-28.25-11.75-20.42,3.92-28.25,11.75-11.75,17.25-11.75,28.25,3.92,20.42,11.75,28.25,17.25,11.75,28.25,11.75ZM188,270h64l-32-57.5-32,57.5ZM340,510v-160h160v160h-160ZM380,470h80v-80h-80v80ZM420,310c-19-16-34.92-29.5-47.75-40.5-12.83-11-23.08-20.67-30.75-29-7.67-8.33-13.17-16.17-16.5-23.5s-5-15.17-5-23.5c0-15,5.25-27.67,15.75-38s23.58-15.5,39.25-15.5c9,0,17.42,2.08,25.25,6.25,7.83,4.17,14.42,9.92,19.75,17.25,5.33-7.33,11.92-13.08,19.75-17.25s16.25-6.25,25.25-6.25c15.67,0,28.75,5.17,39.25,15.5s15.75,23,15.75,38c0,8.33-1.67,16.17-5,23.5-3.33,7.33-8.83,15.17-16.5,23.5s-17.92,18-30.75,29c-12.83,11-28.75,24.5-47.75,40.5ZM420,257.5c24-20,40-34.17,48-42.5s12-15.17,12-20.5c0-4.33-1.25-7.83-3.75-10.5s-5.92-4-10.25-4c-3.33,0-6.58.92-9.75,2.75s-7.08,5.08-11.75,9.75l-24.5,23.5-24.5-23.5c-4.67-4.67-8.58-7.92-11.75-9.75s-6.42-2.75-9.75-2.75c-4.33,0-7.75,1.33-10.25,4s-3.75,6.17-3.75,10.5c0,5.33,4,12.17,12,20.5s24,22.5,48,42.5Z"/>
</svg>