<?xml version="1.0" encoding="UTF-8"?>
<svg id="_レイヤー_1" data-name="レイヤー 1" xmlns="http://www.w3.org/2000/svg" viewBox="0 0 569.99 640">
  <defs>
    <style>
      .cls-1 {
        fill: #ff4088;
      }

      .cls-1, .cls-2 {
        fill-rule: evenodd;
      }

      .cls-2 {
        fill: #c9177e;
      }

      .cls-3 {
        fill: #fff;
      }
    </style>
  </defs>
  <path class="cls-1" d="M548.01,410.53v-202.22c0-26.3-13.93-50.63-36.6-63.95-48.66-28.59-134.62-79.1-187.27-110.03-27.81-16.33-62.34-15.96-89.79.96-46.6,28.73-119.3,73.56-166.22,102.5-28.3,17.45-45.54,48.32-45.54,81.56v207.05c0,32.98,17.5,63.48,45.97,80.12l173.22,101.25c23.03,13.46,51.46,13.76,74.77.78,50.58-28.18,140.17-78.07,191.78-106.81,24.48-13.65,39.65-39.47,39.65-67.49v-23.72h.03Z"/>
  <path class="cls-2" d="M280.27,0h.87s2.34,0,2.34,0l.41.02h.05l.41.02h.04l.41.02h.03l.41.02h.05l.4.02h.05l.4.02h.03l.41.02h.05l.41.03h.05l.4.03h.03l.4.03h.05l.41.03h.03l.4.03h.05l.41.03h.05l.41.03h.05l.41.03h.05l.4.03h.05l.4.03h.05l.41.03h.05l.41.05h.05l.41.05h.03l.4.05h.05l.4.05h.05l.41.05h.05l.41.05h.03l.4.05h.05l.41.05h.05l.4.07.05.02.41.07h.05l.4.07h.03l.41.07h.05l.4.07h.05l.4.07h.03l.41.07h.05l.4.07.05.02.4.07.05.02.4.08h.05l.4.07h.05l.4.08h.05l.41.08h.03l.4.08h.05l.4.08h.03l.41.08.05.02.41.08h.03l.4.1.05.02.4.1h.05l.41.1.03.02.4.08.05.02.4.08.03.02.4.1h.05l.4.1.05.02.4.1.03.02.41.1.03.02.4.1.05.02.4.1h.03l.4.12h.05l.41.1.05.02.4.1h.05l.4.12.05.02.4.12.05.02.4.12.05.02.4.12.03.02.4.12.05.02.4.12.05.02.4.12.05.02.4.13.03.02.4.13h.05l.4.13h.05l.4.13.05.02.4.13.05.02.4.13.03.02.4.13.05.02.4.13.03.02.4.13.03.02.38.13.05.02.38.13.05.02.38.15.05.02.4.15.05.02.38.15.03.02.4.13.03.02.4.15.05.02.4.15.05.02.38.15.05.02.38.17.03.02.4.15.05.02.38.17.05.02.4.17.05.02.4.17.03.02.4.17.03.02.38.17.03.02.38.17.03.02.4.17.03.02.38.17.05.02.38.17.05.02.38.17.03.02.38.18.05.02.38.18.05.02.38.18.03.02.38.18.03.02.38.18.05.02.38.18.05.02.38.18.05.02.38.18.03.02.38.2.03.03.38.18.03.02.36.2.05.02.38.18.03.02.38.2.05.02.36.2.05.03.38.2.05.02.38.2.03.02.36.2.05.03.38.2.03.03.36.22.03.03.36.22.05.02.36.22.03.02.36.22.03.03.36.22.05.03.35.22h.03l187.41,110.11.31.18.03.03.31.18.05.02.3.2.03.03.3.18.03.03.3.18.03.02.3.18.03.02.3.18.03.02.3.18.05.02.3.2.03.02.3.2.05.02.3.18.03.02.3.2.03.03.3.2.03.03.28.18.05.02.3.2.03.02.3.2.03.02.28.2.03.02.28.2.03.02.28.2.03.03.28.2.03.02.28.22.05.03.28.2.03.02.28.2.03.02.28.2.03.03.28.2.03.02.28.2.03.03.28.2.03.03.28.22.05.03.26.22.05.03.28.22.05.02.28.22.03.03.28.22.03.03.26.22.05.03.28.23.05.05.53.43.07.05.53.45.07.05.55.45.07.05.55.45.07.05.53.45.07.07.53.45.07.05.51.46.07.05.51.46.07.05.51.48.07.05.5.46.07.05.51.48.07.07.5.48.07.07.5.48.07.07.48.48.07.07.48.5.07.07.48.5.05.07.48.5.07.07.46.5.07.07.46.5.07.07.46.5.07.07.46.51.07.07.45.53.05.07.46.51.07.07.45.53.07.07.45.53.05.07.45.53.07.07.43.53.05.07.43.53.07.07.43.55.05.07.41.55.05.07.41.55.05.07.41.55.05.08.41.56.05.07.41.55.05.08.4.56.05.07.4.56.05.07.4.56.05.08.38.56.05.08.38.58.05.08.36.56.05.07.36.56.05.07.38.58.05.07.36.58.05.08.35.58.05.08.36.58.05.08.35.58.05.08.35.6.05.07.33.6.05.08.33.6.05.08.33.6.05.08.33.6.03.08.33.61.03.08.31.61.03.08.31.61.05.07.3.63.03.08.31.61.03.08.3.61.05.08.28.63.03.08.28.63.03.08.28.63.03.08.28.63.03.08.26.63.03.08.26.63.03.08.25.65.03.08.25.63.03.08.25.65.03.08.25.65.03.08.25.65.03.08.23.65.03.08.22.65.03.08.22.65.03.08.22.65.03.08.22.66.02.08.2.65.03.08.2.66.02.08.2.66.03.08.2.66.03.08.18.66.03.08.18.66.02.08.17.66.03.1.18.68.02.08.17.68.03.08.15.68.03.08.17.68.02.1.15.68.02.08.15.68.02.08.13.68.02.08.13.68.02.08.13.68.02.08.12.69.02.08.12.68.02.1.12.69.02.1.1.69.02.1.1.68v.07l.05.36v.03l.03.35v.05l.05.35v.03l.05.35v.05l.05.35.02.05.05.35v.05l.03.35.02.03.03.35.02.05.03.35v.05l.03.35.02.05.03.35.02.05.03.35v.05l.03.35v.05l.03.35v.05l.03.35v.05l.03.35v.05l.02.35v.05l.02.36v.05l.03.36v.03l.02.35v.05l.02.35v.05l.02.35v.05l.02.35v.05l.02.36v.05l.02.35v.05l.02.35v.03l.02.35v230.92l-.02.38v.48l-.02.38v.05l-.02.36v.03l-.02.38v.05l-.02.36v.03l-.02.36v.05l-.02.36-.02.05-.02.36v.05l-.02.36v.03l-.02.38v.05l-.03.38v.03l-.03.38v.05l-.03.36v.05l-.02.36v.05l-.03.36v.05l-.03.36v.05l-.03.36v.05l-.03.36-.02.03-.03.38-.02.05-.03.36v.05l-.03.36-.02.05-.05.36v.05l-.05.36v.03l-.05.36v.05l-.05.36-.02.05-.05.38-.02.05-.05.36-.02.05-.05.36v.05l-.05.36v.05l-.05.36-.02.05-.05.36-.02.05-.07.36v.03l-.05.36v.03l-.07.36-.02.05-.05.36-.02.05-.05.36v.03l-.07.36v.03l-.07.36v.03l-.07.36v.05l-.07.35-.02.05-.07.35-.02.05-.07.36-.02.05-.08.36v.03l-.08.36v.03l-.07.35v.05l-.08.36v.03l-.07.36-.02.03-.08.35v.03l-.08.35v.05l-.08.35-.02.05-.08.35-.02.05-.08.35-.02.03-.08.35-.02.03-.08.35-.02.05-.1.35-.02.05-.08.35-.02.05-.1.35v.05l-.1.36-.02.05-.1.35v.05l-.1.35-.02.05-.1.35-.02.05-.1.36-.02.03-.1.35-.02.03-.1.35-.02.05-.12.35-.02.05-.1.35-.02.03-.1.35-.02.05-.1.35-.02.03-.12.35-.02.05-.12.35-.02.05-.12.35-.02.05-.12.35-.02.05-.12.35-.02.03-.12.35-.02.05-.12.35-.02.05-.12.35-.02.03-.12.35-.02.05-.12.35-.02.05-.13.33-.02.05-.12.33-.02.05-.12.33-.02.05-.12.35-.02.05-.13.35-.02.05-.13.33-.02.05-.13.33-.02.05-.13.33-.02.05-.13.33-.02.05-.13.33-.02.05-.13.33-.02.03-.15.33-.02.05-.15.35-.02.05-.13.33-.02.05-.15.33-.02.05-.15.33-.02.05-.15.33-.02.03-.15.33-.02.05-.15.33-.02.03-.15.33-.02.03-.15.33-.02.03-.15.33-.02.03-.17.33-.02.03-.17.31-.02.05-.15.33-.02.03-.17.31-.02.05-.15.33-.02.03-.17.33-.02.05-.17.33-.02.03-.17.31-.02.03-.17.33-.02.05-.17.33-.02.05-.17.33-.03.05-.17.31-.02.03-.17.33-.02.05-.17.33-.02.05-.18.31-.03.03-.18.31-.02.03-.18.31-.02.03-.18.31-.02.03-.18.31-.02.03-.18.31-.02.05-.18.31-.02.03-.18.31-.02.05-.18.31-.03.03-.18.31-.03.03-.18.31-.02.03-.18.31-.02.05-.2.31-.02.03-.18.3-.02.05-.18.3-.03.03-.2.31-.02.05-.2.3-.03.03-.2.3-.02.03-.2.31-.03.05-.2.3-.03.03-.2.3-.02.03-.2.31-.02.03-.2.3-.03.03-.22.3-.02.03-.2.3-.02.03-.22.3-.02.03-.2.3-.03.03-.2.3-.03.03-.22.3-.03.03-.2.3-.02.03-.22.3-.03.05-.2.3-.03.03-.22.3-.03.03-.22.3-.03.03-.22.3-.03.03-.22.3-.02.03-.22.28-.03.03-.22.28-.02.03-.23.28-.03.03-.22.28-.02.03-.22.3-.03.03-.23.3-.03.03-.23.28-.03.03-.23.28-.02.03-.23.28-.03.03-.23.28-.03.03-.23.28-.03.03-.23.28-.03.03-.23.28-.02.03-.23.28-.03.03-.25.28-.03.03-.23.28-.03.03-.23.28-.03.03-.23.28-.03.03-.23.28-.03.03-.23.26-.03.03-.25.28-.03.03-.23.28-.03.03-.25.28-.03.03-.23.28-.03.03-.25.26-.03.03-.25.26-.03.03-.25.26-.03.03-.25.26-.03.03-.25.26-.03.03-.25.26-.03.03-.25.26-.03.03-.25.26-.03.03-.26.26-.03.03-.25.26-.03.03-.25.25-.03.03-.26.26-.05.03-.26.26-.03.03-.26.25-.03.03-.26.26-.03.03-.26.25-.03.03-.26.25-.03.03-.26.25-.03.03-.26.25-.03.03-.26.25-.03.03-.26.25-.03.03-.28.25-.03.02-.26.25-.03.03-.28.25-.03.03-.28.25-.03.02-.28.25-.03.03-.28.23-.05.03-.28.23-.03.03-.28.25-.03.03-.28.25-.03.03-.28.25-.03.03-.28.23-.03.03-.3.23-.03.02-.28.23-.03.03-.28.23-.05.03-.28.23-.03.03-.28.23-.03.03-.28.23-.03.03-.3.23-.03.03-.28.22-.03.03-.3.23-.03.03-.3.23-.03.03-.3.23-.03.03-.3.23-.03.02-.3.22-.03.02-.3.22-.03.02-.3.22-.05.02-.3.22-.03.03-.3.22-.03.03-.3.22-.03.03-.3.22-.05.03-.3.22-.03.02-.31.22-.05.02-.31.22-.03.03-.31.22-.03.03-.31.2-.03.03-.31.22-.03.03-.3.22-.05.03-.31.2-.03.02-.31.2-.05.02-.31.2-.03.03-.31.2-.03.03-.31.2-.03.02-.31.2-.05.02-.31.2-.03.03-.31.2-.05.02-.31.2-.05.03-.31.2-.05.03-.33.2-.03.03-.31.18-.05.02-.31.18-.03.03-.33.2-.05.03-.33.18-.03.03-.31.18-.05.02-.33.18-.05.02-.33.18-.03.02-.31.18-.02.02-191.76,106.86h-.02l-.3.18-.05.02-.31.18-.05.03-.31.17-.05.02-.31.17-.03.02-.31.17-.05.02-.31.17-.05.02-.31.17-.05.02-.31.17-.03.02-.31.17-.03.02-.31.15-.03.02-.33.17-.03.03-.31.17-.03.02-.31.15-.03.02-.31.15-.03.02-.31.17-.03.02-.33.15-.03.02-.31.15-.03.02-.33.15-.03.02-.31.15-.03.02-.31.15-.05.03-.33.15-.03.02-.33.13-.03.02-.33.15-.03.03-.33.15-.05.02-.31.13-.03.02-.33.15-.03.02-.33.13-.03.02-.33.13-.03.02-.33.13-.05.02-.33.13-.05.02-.33.13-.05.02-.31.13-.03.02-.33.12-.03.02-.33.13-.05.02-.33.13-.05.02-.33.13-.05.02-.33.12-.05.02-.33.13-.05.02-.33.12-.03.02-.33.12-.05.02-.33.12-.05.02-.33.12-.05.02-.33.12-.03.02-.33.12-.33.12-.05.02-.35.1-.05.02-.33.1-.03.02-.33.12-.03.02-.35.1-.05.02-.33.1-.05.02-.33.1-.05.02-.35.12-.07.02-.66.2-.08.03-.68.2-.08.02-.68.2-.08.02-.68.18-.08.03-.68.18-.08.02-.68.18-.1.02-.68.17-.08.02-.68.17-.1.02-.68.17-.08.02-.68.15-.08.02-.69.15-.1.02-.69.15-.08.02-.69.13-.08.02-.68.12-.08.02-.68.13-.08.02-.69.12-.08.02-.69.12-.08.02-.69.1-.08.02-.69.1-.08.02-.69.1-.08.02-.69.1-.1.02-.69.08-.08.02-.69.08-.08.02-.69.08-.69.07h-.08l-.69.05-.08.02-.69.05h-.08l-.69.05h-.08l-.69.05-.1.02-.69.05h-.08l-.69.03h-.08l-.69.03h-.1l-.69.02h-.08l-.69.02h-.08l-.69.02h-2.45l-.69-.02-.69-.02h-.1l-.69-.02h-.01l-.69-.03-.08-.02-.69-.03h-.08l-.69-.03-.08-.02-.69-.03h-.08l-.69-.05-.08-.02-.69-.07-.1-.02-.69-.07-.1-.02-.69-.07-.08-.02-.69-.07h-.08l-.69-.07-.08-.02-.69-.08h-.1l-.69-.08-.1-.02-.69-.1-.08-.02-.69-.1-.08-.02-.69-.1-.08-.02-.69-.1-.08-.02-.68-.12h-.05l-.69-.13-.09-.02-.68-.13-.08-.02-.68-.13-.08-.02-.68-.13-.1-.02-.69-.13-.08-.02-.68-.15-.1-.03-.68-.15-.08-.02-.68-.17-.09-.03-.68-.17-.08-.03-.68-.18-.08-.02-.68-.18-.08-.03-.68-.18-.08-.03-.68-.18-.08-.03-.68-.2-.1-.03-.68-.2-.08-.03-.68-.2-.08-.03-.68-.2-.08-.02-.66-.22-.07-.02-.35-.12h-.04l-.33-.1-.05-.02-.33-.12-.05-.02-.33-.12-.05-.02-.33-.12-.05-.02-.33-.12-.05-.02-.33-.12-.03-.02-.33-.12-.03-.02-.33-.12-.03-.02-.33-.13-.05-.02-.33-.13-.05-.02-.33-.13-.03-.02-.33-.13-.05-.02-.33-.13-.03-.02-.33-.13-.05-.02-.33-.13-.03-.02-.33-.13-.03-.02-.33-.13-.05-.02-.33-.13-.05-.02-.33-.13-.05-.02-.33-.13-.05-.02-.33-.13-.03-.02-.33-.15-.05-.02-.31-.15-.03-.02-.33-.15-.03-.02-.33-.15-.03-.02-.33-.13-.05-.02-.31-.15-.05-.02-.33-.15-.05-.02-.31-.15-.03-.03-.31-.15-.03-.02-.31-.15-.03-.02-.33-.15-.03-.03-.33-.17-.03-.03-.31-.15-.05-.02-.33-.15-.03-.03-.31-.17-.05-.02-.33-.17-.03-.02-.31-.17-.05-.02-.31-.17-.03-.02-.31-.17-.05-.03-.31-.17-.03-.02-.31-.17-.03-.02-.31-.17-.05-.03-.31-.17-.03-.02-.31-.18-.05-.03-.31-.17-.05-.02-.31-.17-.05-.02-.31-.17-.05-.02-.31-.18-.05-.02-.3-.18-.05-.02-.3-.18-.02-.02-173.35-101.18-.02-.02-.36-.22-.03-.02-.36-.22-.05-.02-.38-.22-.05-.02-.36-.23-.03-.02-.36-.23-.03-.03-.36-.23-.03-.03-.36-.23-.05-.02-.36-.22-.05-.03-.36-.23-.03-.03-.36-.23h.08l-.36-.23-.05-.03-.36-.23-.03-.03-.36-.23-.05-.03-.36-.25-.05-.03-.36-.25-.03-.03-.36-.23-.03-.03-.36-.25-.03-.03-.36-.25-.03-.03-.35-.25-.05-.03-.36-.25-.03-.03-.35-.25-.04-.03-.35-.25-.04-.03-.35-.25-.03-.02-.35-.25-.03-.03-.34-.25-.03-.03-.34-.25-.05-.02-.35-.25-.03-.03-.35-.26-.03-.03-.35-.25-.04-.03-.35-.26-.04-.03-.33-.26-.03-.03-.33-.26-.03-.02-.33-.26-.03-.03-.33-.26-.03-.03-.33-.26-.03-.03-.33-.26-.03-.03-.33-.26-.03-.03-.33-.26-.03-.03-.33-.28-.03-.02-.33-.26-.03-.03-.32-.26-.03-.03-.33-.28-.03-.03-.33-.26-.03-.03-.33-.28-.03-.02-.32-.26-.03-.03-.31-.26-.03-.03-.31-.28-.03-.03-.31-.28-.03-.03-.31-.28-.03-.03-.31-.28-.03-.03-.31-.28-.03-.03-.31-.3-.03-.02-.31-.28-.05-.03-.31-.3-.03-.03-.31-.28-.03-.03-.31-.3-.03-.03-.3-.3-.03-.03-.3-.3-.03-.03-.31-.3-.03-.03-.31-.3-.03-.02-.3-.3-.03-.03-.3-.3-.03-.03-.3-.3-.03-.03-.3-.3-.03-.03-.3-.3-.03-.03-.3-.3-.03-.03-.28-.3-.03-.03-.3-.3-.03-.03-.3-.31-.03-.03-.28-.31-.03-.03-.28-.31-.03-.03-.3-.31-.03-.03-.28-.31-.03-.03-.28-.31-.03-.03-.28-.31-.03-.03-.28-.31-.03-.03-.28-.31-.02-.03-.26-.31-.03-.03-.28-.31-.03-.03-.3-.33-.03-.03-.28-.31-.03-.03-.28-.33-.03-.03-.26-.31-.02-.03-.26-.31-.03-.03-.26-.33-.03-.03-.28-.33-.03-.03-.26-.31-.03-.03-.28-.31-.03-.03-.26-.31-.03-.03-.26-.33-.03-.03-.26-.33-.03-.03-.26-.33-.03-.03-.26-.33-.03-.03-.26-.33-.02-.03-.25-.33-.03-.03-.25-.33-.02-.03-.25-.33-.03-.03-.25-.35-.03-.03-.25-.33-.03-.03-.25-.33-.02-.03-.25-.35-.02-.03-.25-.35-.02-.03-.25-.33-.02-.03-.25-.33-.03-.03-.25-.35-.03-.03-.25-.35-.03-.05-.23-.35-.03-.03-.23-.35-.03-.03-.23-.35-.03-.03-.23-.35-.02-.03-.23-.35-.03-.05-.23-.35-.03-.03-.23-.35-.03-.03-.23-.35-.03-.03-.23-.35-.03-.03-.22-.35-.02-.03-.22-.35-.03-.05-.23-.35-.03-.05-.23-.35-.02-.03-.23-.36-.02-.05-.22-.35-.03-.03-.22-.35-.03-.03-.22-.36-.03-.05-.22-.35-.02-.03-.22-.36-.02-.03-.22-.35-.03-.05-.22-.36-.03-.05-.22-.36-.03-.05-.2-.36-.03-.03-.22-.36-.02-.03-.2-.36-.02-.03-.2-.36-.02-.05-.2-.36-.03-.05-.2-.36-.02-.05-.2-.38-.02-.03-.2-.36-.02-.05-.2-.36-.02-.05-.2-.36-.02-.05-.18-.38-.02-.03-.2-.38-.02-.05-.2-.38-.03-.03-.18-.38-.02-.03-.18-.36-.02-.05-.18-.38v.02l-.18-.38-.03-.05-.18-.38-.02-.05-.18-.36-.02-.05-.18-.38-.02-.03-.18-.38-.02-.03-.17-.38-.02-.03-.18-.38-.02-.03-.18-.38-.02-.03-.18-.38-.02-.05-.17-.38-.02-.03-.18-.38-.02-.05-.18-.38-.02-.03-.17-.38-.02-.03-.17-.38-.02-.05-.17-.38-.02-.03-.15-.38-.02-.03-.17-.38-.02-.05-.15-.4-.02-.03-.17-.38-.02-.05-.15-.36-.02-.05-.17-.4-.02-.03-.15-.4-.02-.05-.15-.4-.02-.03-.15-.4-.02-.05-.15-.4-.02-.03-.15-.4-.02-.03-.13-.4-.02-.05-.15-.4-.02-.03-.13-.4-.02-.05-.13-.4-.02-.05-.15-.4-.02-.05-.13-.4-.02-.03-.13-.4-.02-.03-.13-.4-.02-.05-.13-.4-.02-.05-.13-.4-.02-.05-.13-.4-.02-.05-.13-.4v-.05s-.13-.4-.13-.4l-.02-.03-.13-.41-.02-.05-.12-.41-.02-.05-.12-.4-.02-.05-.12-.4-.02-.05-.12-.41-.02-.05-.12-.41-.02-.03-.12-.41-.02-.02-.12-.41-.02-.03-.1-.4-.02-.03-.1-.4v-.03l-.12-.41v-.05l-.1-.4-.02-.05-.1-.4-.02-.05-.1-.41h.02l-.1-.41-.02-.03-.1-.41-.02-.03-.1-.41-.02-.03-.1-.41.02-.02-.1-.41-.02-.05-.1-.41-.02-.05-.08-.41-.02-.05-.1-.41-.02-.03-.08-.41-.02-.05-.08-.41-.02-.05-.08-.41-.08-.41v-.05l-.08-.43v-.05l-.08-.41-.02-.05-.1-.4v-.05l-.08-.45-.02-.05-.08-.43-.02-.05-.07-.41-.02-.05-.07-.41v-.05l-.07-.41v-.05l-.07-.41-.02-.05-.07-.41v.02l-.07-.41v-.03l-.07-.41v-.05l-.07-.41v-.05l-.07-.41v-.03l-.05-.43v-.05l-.05-.41v-.03l-.07-.43-.02-.05-.05-.41v-.05l-.05-.43-.02-.05-.05-.43v-.05l-.05-.43-.02-.05-.05-.43v-.05l-.05-.43-.02-.03-.05-.43-.03-.43v-.05l-.05-.43-.02-.05-.05-.43v-.05l-.03-.43-.02-.05-.03-.43v-.05l-.03-.43v-.05l-.03-.43-.03-.43v-.05l-.03-.43v-.05l-.03-.43v-.53l-.02-.43v-.05l-.02-.43v-.05l-.02-.43-.02-.05-.02-.43v-.46l-.02-.43v-.05l-.02-.43v-209.41l.02-.41v-.53l.02-.43v-1.52l.02-.43v-.03l.02-.43v-.05l.02-.43v-.05l.02-.43v-.03l.02-.43v-.05l.02-.43v-.05l.03-.45v-.05l.03-.43v-.03l.02-.43v-.05l.03-.43v-.05l.02-.43v-.05l.02-.43v-.05l.03-.43v-.05l.03-.43v-.05l.05-.43v-.05l.03-.43.02-.03.03-.43v-.03l.05-.43v-.03l.05-.43.02-.05.05-.43v-.05l.05-.43v-.03l.05-.43v-.03l.05-.43.02-.05.05-.43v-.05l.05-.41v-.05l.05-.43v-.05l.05-.43.02-.05.05-.41v-.05l.07-.43v-.05l.05-.43.02-.05.05-.41.02-.05.07-.43.02-.03.07-.43v-.03l.07-.43v-.03l.07-.41.02-.05.07-.41v-.05l.12-.43.02-.05.07-.41v-.05l.08-.41v-.03l.08-.41v-.03l.08-.43.02-.03.08-.41.02-.03.08-.41.02-.05.08-.41.02-.05.08-.41v-.05l.08-.41v-.03l.08-.41.02-.03.08-.41.02-.03.1-.41v-.05l.1-.41.02-.05.08-.41.02-.05.1-.41v-.05l.1-.41.02-.05.1-.41v-.05l.1-.41.02-.03.1-.41v-.03l.1-.41.02-.05.12-.41v-.03l.12-.41v-.03l.12-.41.02-.05.12-.41v-.05l.12-.41.02-.05.12-.4.02-.03.12-.41.02-.04.12-.41.02-.05.12-.4.02-.03.13-.41.02-.03.12-.4.02-.03.12-.4.02-.03.12-.41.02-.05.13-.4.02-.05.13-.4v-.03l.13-.4v-.05l.13-.4.02-.03.13-.4.02-.05.13-.4.02-.05.13-.4.02-.05.13-.4.02-.03.15-.4.02-.03.13-.4.02-.04.13-.4.02-.03.15-.4.02-.03.15-.4v-.03l.15-.4.02-.03.15-.4.02-.05.15-.4.02-.03.15-.4.02-.05.17-.38.02-.03.17-.4.02-.03.17-.4.02-.05.17-.4.02-.05.17-.4.02-.05.17-.4.02-.05.17-.4.02-.05.17-.4.02-.04.17-.38.02-.05.17-.38.02-.05.17-.4.02-.03.18-.4.02-.03.18-.38.02-.03.17-.38.02-.05.18-.38.02-.03.18-.38.02-.03.18-.38.02-.03.18-.38.02-.05.18-.38.02-.03.18-.38.02-.05.18-.38.02-.03.18-.38.02-.03.18-.38.02-.03.18-.38.02-.03.2-.36.02-.03.2-.38.03-.05.2-.38.02-.03.2-.38.02-.05.2-.36.02-.03.2-.36.02-.03.2-.36.02-.05.2-.36.03-.03.2-.36.02-.05.2-.36.03-.03.2-.36.02-.03.2-.36.03-.05.22-.36.02-.03.2-.36.02-.03.22-.36.02-.03.22-.36.02-.03.22-.36.03-.03.22-.36.02-.03.22-.36.03-.03.22-.36.02-.03.22-.36.03-.03.22-.36.02-.03.23-.36.03-.05.23-.36.02-.03.22-.35.03-.03.23-.35.03-.03.22-.36.02-.03.23-.35.02-.03.23-.35.03-.03.23-.36.03-.03.23-.35.02-.05.23-.35.02-.03.23-.35.02-.03.25-.35.03-.03.23-.35.03-.03.25-.35.02-.03.25-.35.02-.03.25-.35.02-.03.25-.35.03-.03.25-.35.02-.03.25-.35.03-.03.25-.33.02-.03.25-.35.03-.03.25-.33.03-.03.25-.33.03-.03.25-.33.03-.03.25-.33.02-.03.25-.33.03-.03.26-.33.03-.03.26-.33.03-.03.26-.33.03-.03.26-.33.03-.03.26-.33.03-.05.26-.33.02-.03.26-.33.03-.03.26-.33.03-.03.26-.31.03-.03.26-.33.03-.03.26-.33.03-.03.28-.31.03-.03.26-.33.03-.03.26-.31.03-.03.26-.33.03-.03.28-.33.02-.03.28-.31.03-.03.28-.31.03-.03.28-.31.03-.03.28-.31.02-.03.28-.31.03-.03.28-.31.03-.03.28-.31.02-.03.28-.31.03-.03.3-.31.02-.03.3-.31.03-.03.31-.3.03-.03.3-.31.03-.03.3-.31.03-.03.3-.3.03-.03.3-.3.03-.03.3-.3.03-.03.31-.3.03-.03.3-.3.03-.03.3-.3.03-.03.3-.3.03-.03.3-.3.03-.03.3-.3.03-.03.3-.3.03-.03.3-.3.03-.03.31-.28.03-.03.31-.28.03-.03.31-.3.03-.03.31-.3.03-.02.31-.28.03-.02.31-.28.03-.03.31-.28.03-.03.31-.28.03-.03.31-.28.03-.02.33-.28.03-.03.33-.28.03-.03.33-.28.03-.03.33-.26.03-.03.33-.26.03-.03.31-.26.03-.03.33-.26.03-.03.33-.26.03-.02.33-.26.03-.03.33-.26.03-.03.33-.26.03-.03.35-.26.03-.03.33-.26.03-.03.35-.26.03-.03.35-.26.03-.03.33-.26.03-.02.35-.26.03-.03.33-.26.03-.03.35-.25.03-.03.35-.26.03-.03.35-.25.03-.02.35-.25.05-.03.35-.25.03-.02.35-.25.03-.03.35-.26.03-.02.36-.25.03-.03.35-.25.05-.02.35-.25.03-.02.35-.25.03-.02.36-.25.03-.03.35-.25.03-.02.36-.23.03-.02.35-.25.05-.03.36-.23.03-.03.36-.25.03-.03.36-.23.05-.02.36-.23.03-.03.36-.23.03-.02.36-.23.03-.02.36-.23.03-.02.36-.23.05-.02.36-.22h.02L222.38,16.45l.02-.02.35-.22.03-.02.36-.23.05-.03.36-.22.05-.03.36-.22.05-.03.36-.22.05-.02.38-.22.03-.03.36-.22.05-.02.36-.22.03-.02.38-.2.03-.03.38-.2.03-.03.36-.2.05-.02.38-.2.03-.03.36-.2.05-.03.36-.2.05-.03.36-.2.03-.03.38-.2.03-.02.36-.2.05-.02.36-.2.05-.02.38-.2.05-.02.38-.2.03-.02.38-.18.05-.02.38-.18.05-.02.36-.18.05-.02.38-.18.03-.02.38-.18.05-.02.38-.18.05-.03.38-.18.05-.02.38-.18.05-.02.38-.17.05-.02.38-.17.03-.03.38-.17.03-.02.38-.17.05-.03.38-.17.05-.02.38-.17.05-.02.38-.17.05-.02.38-.17.05-.02.38-.17.05-.02.38-.15.05-.02.38-.17.05-.02.4-.17.05-.02.4-.17.05-.03.38-.15.03-.02.4-.15.05-.02.38-.15.03-.02.4-.15.05-.02.4-.13.05-.02.4-.15.05-.02.4-.15.05-.02.4-.13.05-.02.4-.13.05-.02.38-.13.05-.02.4-.13.05-.02.38-.13.05-.02.4-.13.03-.02.4-.13.05-.02.4-.13.05-.02.4-.13.05-.02.4-.12.03-.02.4-.12.05-.02.4-.12h.05l.4-.12.05-.02.4-.12.03-.02.4-.12.03-.02.4-.12.05-.02.4-.12.05-.02.4-.12.05-.02.4-.1.05-.02.4-.1.03-.02.4-.12.04-.02.41-.1h.03l.4-.12h.05l.41-.1.05-.02.41-.1.05-.02.4-.1h.05l.41-.1h.05l.4-.1.05-.02.4-.08.05-.02.4-.1.05-.02.4-.08h.05l.4-.08.05-.02.4-.08h.03l.4-.08.05-.02.41-.08h.03l.41-.08.03-.02.41-.08.05-.02.41-.08.05-.02.41-.07h.05l.4-.07.05-.02.41-.08.05-.02.41-.07h.05l.4-.07.05-.02.41-.07.05-.02.4-.07h.03l.4-.07h.05l.41-.07.05-.02.41-.07h.05l.41-.07h.05l.41-.07h.05l.41-.05h.05l.4-.05h.05l.41-.05.05-.02.41-.05.03-.02.41-.03h.05l.4-.05h.05l.4-.05h.05l.41-.05h.05l.41-.05h.05l.4-.03h.05l.41-.05.05-.02.41-.03.05-.02.41-.03h.05l.41-.03h.05l.41-.03h.05l.41-.02.05-.02.41-.03.03-.02.41-.02h.05l.41-.03h.03l.41-.02h.05l.41-.02h.05l.41-.02h.05l.41-.02.05-.02.41-.02h.05l.41-.02h.05l.41-.02h.05l.41-.02h.05l.41-.02h.03l.41-.02h.51l.41-.02h.96l.09-.14ZM279.89,44.66h-.54s-.27,0-.27,0h-.28s-.28.01-.28.01h-.28s-.28.02-.28.02l-.28.02-.28.02-.26.02-.28.02-.26.02-.26.02-.26.02-.28.02-.26.02-.28.03-.28.03-.26.03-.28.03-.28.03-.28.03-.26.03-.28.03-.26.03-.26.03-.28.03-.26.03-.26.03-.26.03-.26.03-.28.03-.26.05-.26.03-.28.05-.26.05-.26.05-.26.05-.26.05-.26.05-.26.05-.26.03-.28.05-.26.05-.28.05-.26.05-.26.05-.26.05-.26.07-.26.07-.26.07-.26.05-.26.05-.26.07-.26.07-.26.07-.26.07-.26.07-.26.07-.26.07-.26.07-.26.07-.26.07-.26.08-.26.07-.26.08-.25.08-.26.08-.26.08-.26.08-.26.08-.26.08-.25.08-.26.08-.26.1-.26.08-.26.08-.26.1-.26.08-.26.08-.25.08-.26.1-.26.1-.26.1-.25.1-.26.1-.25.1-.25.1-.26.12-.26.1-.26.1-.26.1-.25.12-.25.1-.26.12-.25.12-.25.12-.25.12-.26.12-.25.12-.26.12-.25.12-.25.12-.25.12-.26.12-.25.12-.25.12-.25.13-.25.13-.25.12-.25.13-.25.12-.25.13-.25.13-.25.13-.25.13-.25.13-.25.15-.23.13-.25.13-.23.13-.25.15-.25.15-.25.15-.23.13-.25.15-.23.15-.25.15-.25.15-.26.17-166.07,102.36-.28.18-.26.17-.25.17-.25.17-.25.17-.25.17-.25.17-.25.17-.25.17-.25.17-.25.17-.25.17-.25.18-.23.17-.23.17-.25.17-.23.17-.23.17-.23.17-.23.17-.23.17-.23.17-.23.18-.23.17-.23.18-.23.18-.23.18-.23.18-.23.18-.23.18-.22.18-.23.18-.23.18-.22.18-.23.18-.23.18-.22.18-.23.18-.22.18-.22.18-.22.2-.22.2-.22.18-.22.18-.22.2-.22.2-.22.2-.22.2-.22.2-.22.2-.22.2-.22.2-.22.2-.22.2-.22.2-.2.2-.22.2-.2.22-.22.2-.2.22-.2.2-.2.22-.2.2-.2.22-.2.22-.22.22-.2.2-.2.22-.2.22-.2.22-.18.22-.2.22-.2.22-.2.22-.2.23-.2.22-.18.22-.18.22-.2.23-.18.22-.2.22-.18.23-.18.22-.18.23-.18.23-.18.23-.18.23-.18.23-.18.23-.17.23-.18.23-.18.23-.18.23-.18.23-.17.23-.17.23-.17.23-.17.25-.17.23-.17.23-.17.25-.17.23-.17.23-.17.23-.17.23-.15.25-.17.25-.17.23-.17.25-.15.25-.15.23-.15.25-.15.25-.15.25-.15.25-.17.25-.17.25-.15.25-.15.25-.15.25-.15.25-.15.25-.15.25-.15.25-.15.25-.15.25-.15.25-.15.26-.15.25-.15.25-.15.26-.13.25-.13.26-.13.26-.13.26-.13.25-.13.25-.13.26-.13.25-.13.26-.12.25-.13.26-.13.26-.13.26-.13.26-.13.26-.12.26-.12.26-.12.26-.12.26-.12.26-.12.26-.12.26-.12.26-.12.26-.1.26-.12.26-.12.28-.12.26-.12.26-.12.26-.1.26-.12.28-.12.26-.1.26-.1.28-.1.26-.1.28-.1.26-.1.28-.1.28-.1.28-.08.28-.1.26-.1.28-.08.28-.08.26-.08.28-.1.28-.08.26-.08.26-.08.28-.1.28-.08.28-.08.26-.08.28-.08.28-.08.28-.08.28-.08.28-.07.28-.07.28-.08.28-.07.28-.08.28-.07.28-.07.28-.07.3-.07.28-.07.28-.07.28-.07.28-.07.28-.07.28-.05.28-.07.28-.05.28-.05.3-.05.3-.05.3-.05.3-.05.28-.05.28-.05.3-.05.3-.05.28-.05.28-.05.28-.05.3-.03.3-.03.3-.03.28-.05.3-.05.28-.03.3-.03.3-.03.3-.03.3-.03.3-.03.3-.03.28-.03.3-.03.3-.02.3-.03.3-.03.3-.02.3-.02.3-.02.3-.02.3-.02.3-.02.3-.02.3-.02.3-.02.3-.02.3v.3l-.02.3-.02.3v.3l-.02.3v209.74l.02.3v.89l.02.28.02.3.02.3.02.3.02.3.02.3.02.3.02.3.02.3.03.3.02.3.02.3.02.3.03.28.03.3.03.28.02.3.03.28.03.28.03.28.03.28.03.3.03.28.03.28.03.3.03.3.03.28.03.3.05.28.05.28.05.28.05.28.05.3.05.28.05.28.05.28.05.28.07.28.05.28.05.28.05.28.07.28.07.28.05.28.07.28.07.28.07.28.07.28.07.28.07.28.07.28.07.26.08.26.07.28.07.28.07.28.08.28.07.26.07.28.07.26.08.28.07.26.08.28.08.28.08.26.08.28.08.28.08.26.08.28.1.26.1.26.1.26.1.26.08.26.1.28.1.26.1.26.1.26.1.26.1.26.1.26.1.26.1.26.1.26.12.26.12.26.1.26.1.26.1.26.1.26.1.26.12.26.12.26.12.26.12.26.12.26.12.26.12.26.12.26.12.26.12.26.12.26.12.25.13.26.13.25.13.26.13.25.13.25.13.25.13.25.13.25.13.25.15.25.13.25.13.25.13.25.15.25.15.25.13.25.13.25.13.25.15.25.13.25.15.23.15.25.15.23.15.25.15.25.15.23.15.23.15.23.15.23.15.25.15.25.17.23.15.23.15.25.15.23.15.23.17.23.17.23.17.25.17.23.17.23.17.23.17.23.17.23.17.23.17.23.18.23.18.23.17.23.17.23.17.23.17.23.18.22.18.22.18.23.18.22.18.23.18.22.18.22.18.22.18.22.18.22.18.22.18.22.18.22.18.22.18.22.18.22.2.22.2.22.18.22.2.2.2.22.2.2.2.22.18.22.2.22.2.2.2.2.2.2.2.2.2.22.2.2.2.2.2.2.2.2.2.2.22.2.2.2.2.2.22.2.2.2.2.2.22.2.22.18.22.18.22.2.22.2.22.18.22.18.22.2.22.2.22.18.23.18.23.18.23.18.22.18.22.18.23.18.22.18.23.17.22.18.23.18.23.18.23.18.22.17.23.18.23.17.23.18.23.18.23.17.23.17.25.17.23.17.23.17.23.17.23.17.23.17.23.17.25.17.25.15.25.17.23.17.25.17.25.17.23.15.25.15.25.15.25.15.25.15.25.15.26.15.25.15.25.15.28.17,173.15,101.23.22.13.18.1.2.1.2.1.2.1.18.12.2.1.2.1.2.1.2.12.2.1.2.1.2.1.2.1.2.1.2.1.2.1.2.1.18.1.2.1.2.1.2.08.2.1.2.08.2.08.2.08.2.1.2.1.2.08.2.1.2.08.2.08.2.08.2.08.2.08.2.08.2.08.2.08.2.08.2.07.22.08.2.08.2.08.2.08.2.08.2.07.2.08.2.07.2.07.22.07.2.07.18.07.43.13.41.13.41.12.41.12.41.12.41.12.41.12.41.12.41.12.41.1.41.1.41.1.41.08.41.1.41.08.41.08.41.08.41.07.41.08.41.07.41.07.43.07.41.07.43.05.43.05.43.05.43.03.41.03.43.03.41.03.43.03.43.03.41.03.41.02.41.02.43.02h2.12l.43-.02h.43l.43-.02.43-.02.43-.03.43-.03.43-.02.43-.03.43-.03.43-.03.41-.03.43-.05.43-.05.41-.05.43-.05.41-.07.43-.07.41-.07.43-.07.41-.07.41-.08.41-.07.43-.08.41-.08.41-.1.41-.08.41-.1.41-.1.41-.1.41-.1.41-.12.41-.12.41-.12.41-.12.43-.13.2-.07.2-.07.2-.07.22-.07.2-.07.22-.07.2-.07.2-.07.22-.07.2-.07.2-.07.22-.08.2-.07.22-.07.2-.08.2-.07.2-.07.2-.07.22-.08.2-.07.2-.08.2-.08.2-.08.2-.08.2-.08.2-.08.2-.08.2-.08.2-.08.2-.08.2-.1.2-.1.2-.08.2-.1.2-.1.2-.08.2-.1.2-.1.2-.1.18-.1.2-.1.2-.1.2-.1.2-.1.2-.1.2-.1.2-.1.2-.1.18-.1.2-.1.2-.1.22-.12,191.83-106.91.23-.12.22-.12.2-.12.2-.12.2-.12.2-.13.22-.12.2-.12.2-.12.2-.12.2-.13.2-.13.2-.12.2-.12.2-.12.2-.13.2-.13.2-.12.2-.13.2-.12.18-.13.18-.13.18-.13.18-.13.18-.13.2-.13.18-.13.2-.13.18-.13.18-.13.18-.13.18-.13.18-.13.2-.13.18-.15.18-.13.18-.15.18-.13.18-.15.18-.15.18-.15.18-.13.18-.13.18-.15.17-.15.18-.15.18-.15.17-.13.18-.15.18-.17.17-.15.18-.15.17-.15.17-.15.17-.17.18-.15.17-.17.17-.15.17-.17.17-.17.17-.15.17-.17.17-.15.17-.17.17-.17.17-.17.17-.17.15-.17.17-.17.15-.17.17-.17.17-.17.17-.17.15-.17.15-.17.15-.17.15-.17.17-.17.15-.17.15-.17.15-.17.15-.17.15-.17.15-.17.15-.17.15-.18.15-.18.15-.18.15-.17.15-.17.15-.17.15-.18.15-.17.15-.18.13-.17.13-.18.13-.18.13-.17.15-.18.13-.18.13-.18.13-.18.13-.18.13-.18.13-.18.13-.18.13-.18.13-.18.13-.18.13-.18.13-.18.12-.18.12-.2.13-.2.13-.18.12-.18.12-.18.13-.2.13-.18.12-.18.12-.2.12-.2.12-.2.12-.2.12-.18.12-.2.12-.2.12-.18.12-.2.12-.2.12-.2.1-.2.1-.2.12-.2.12-.2.1-.2.12-.2.12-.2.1-.2.1-.2.1-.22.1-.2.12-.2.12-.2.1-.2.1-.2.1-.2.1-.22.1-.2.1-.2.1-.22.1-.2.1-.2.1-.22.1-.22.1-.22.1-.2.08-.2.08-.22.08-.22.08-.22.08-.2.08-.22.08-.22.08-.22.08-.2.08-.22.08-.22.08-.22.08-.22.08-.22.07-.22.07-.22.07-.22.07-.22.08-.22.08-.22.08-.22.08-.22.07-.22.08-.22.07-.22.07-.22.08-.22.07-.22.07-.22.07-.22.07-.22.05-.22.07-.22.07-.22.07-.22.07-.22.05-.22.05-.23.07-.22.05-.22.05-.23.07-.22.05-.22.05-.22.05-.22.05-.23.05-.22.05-.22.03-.23.05-.23.05-.22.03-.23.05-.22.05-.23.05-.23.05-.22.05-.23.03-.23.05-.23.03-.22.05-.22.03-.23.03-.23.03-.23.03-.23.03-.23.03-.23.03-.23.02-.23.03-.22.02-.23.03-.23.03-.22.03-.23.02-.23.02-.23.02-.23.02-.23.03-.23.02-.23.02-.23.02-.23.02-.23.02-.23.02-.23.02-.23.02-.23.02-.23.02-.23.02-.23v-.46l.02-.23v-228.98l-.02-.2-.02-.22v-.22l-.02-.22v-.22l-.02-.22v-.22l-.02-.22-.02-.2-.02-.22-.02-.22-.02-.22-.02-.2-.02-.22-.02-.2-.02-.22-.03-.22-.02-.2-.02-.2-.03-.2-.02-.2-.03-.22-.02-.2-.03-.2-.03-.22-.02-.22-.02-.2-.03-.18-.07-.44-.05-.42-.07-.43-.07-.41-.08-.41-.08-.41-.07-.41-.08-.41-.1-.41-.1-.41-.1-.41-.1-.41-.1-.41-.1-.41-.1-.41-.12-.41-.12-.41-.12-.41-.13-.41-.12-.4-.13-.4-.13-.4-.13-.4-.13-.4-.15-.4-.15-.4-.15-.38-.15-.4-.15-.4-.15-.4-.17-.38-.15-.4-.17-.38-.17-.38-.17-.38-.18-.38-.17-.38-.18-.38-.18-.38-.18-.36-.2-.38-.18-.38-.2-.38-.2-.36-.2-.36-.2-.36-.2-.36-.2-.36-.22-.36-.22-.36-.22-.36-.23-.36-.22-.35-.22-.35-.23-.35-.23-.35-.23-.35-.23-.35-.23-.35-.23-.35-.25-.33-.25-.33-.25-.33-.25-.33-.25-.33-.26-.33-.26-.33-.26-.33-.26-.33-.26-.31-.28-.31-.26-.31-.28-.31-.28-.31-.28-.31-.28-.31-.28-.31-.3-.3-.3-.3-.3-.3-.3-.3-.3-.3-.31-.3-.31-.3-.31-.28-.31-.28-.31-.28-.31-.28-.31-.28-.33-.28-.33-.26-.33-.26-.31-.26-.35-.28-.15-.12-.17-.13-.17-.13-.17-.13-.17-.13-.17-.12-.17-.13-.17-.13-.18-.13-.18-.13-.17-.13-.17-.13-.17-.13-.17-.12-.17-.13-.18-.13-.17-.12-.17-.12-.18-.13-.18-.12-.18-.12-.17-.12-.18-.12-.18-.12-.18-.12-.18-.12-.18-.12-.18-.12-.18-.12-.18-.12-.18-.12-.18-.1-.18-.1-.22-.12-187.18-109.82-.26-.16-.24-.13-.25-.15-.25-.15-.24-.14-.25-.13-.24-.13-.25-.13-.25-.13-.25-.13-.24-.13-.25-.13-.25-.13-.25-.13-.25-.13-.25-.13-.25-.13-.25-.12-.25-.13-.25-.12-.25-.12-.25-.13-.26-.12-.25-.12-.25-.12-.26-.12-.25-.12-.25-.1-.26-.12-.25-.12-.25-.12-.26-.1-.25-.1-.26-.1-.25-.12-.26-.1-.26-.12-.26-.1-.26-.1-.26-.1-.26-.1-.26-.1-.26-.1-.25-.1-.25-.08-.25-.08-.26-.1-.26-.08-.25-.08-.26-.08-.26-.08-.25-.08-.26-.08-.26-.08-.26-.08-.25-.08-.26-.08-.26-.08-.26-.08-.26-.07-.26-.08-.26-.07-.26-.08-.26-.07-.26-.07-.26-.07-.26-.08-.26-.07-.26-.07-.26-.05-.26-.07-.26-.07-.26-.07-.26-.05-.26-.07-.26-.05-.26-.05-.26-.07-.26-.05-.26-.05-.26-.05-.26-.05-.26-.05-.26-.05-.28-.05-.26-.03-.26-.03-.26-.03-.26-.03-.26-.05-.26-.05-.26-.03-.28-.05-.26-.03-.26-.05-.26-.03-.26-.03-.26-.03-.26-.03-.26-.03-.28-.03-.26-.02-.26-.03-.26-.03-.26-.02-.26-.02-.26-.02-.26-.02-.26-.02-.28-.02-.28-.02-.26-.02-.26-.02h-.26l-.26-.02-.26-.02h-.28l-.26-.02-.26-.02-.25-.02-.26-.02h-.55l-.26-.02h-.53l-.27.11Z"/>
  <path class="cls-3" d="M154.02,490.02V147.25h71.71v124.85h118.96v-124.85h71.92v342.77h-71.92v-149.87h-118.96v149.87h-71.71Z"/>
</svg>