<?xml version="1.0" encoding="UTF-8"?>
<svg id="_レイヤー_1" data-name="レイヤー 1" xmlns="http://www.w3.org/2000/svg" viewBox="0 0 640 640">
  <defs>
    <style>
      .cls-1 {
        fill: #2f0000;
      }

      .cls-2 {
        fill: #ff9b01;
      }
    </style>
  </defs>
  <rect class="cls-1" width="640" height="640" rx="120" ry="120"/>
  <g>
    <path class="cls-2" d="M117.21,463.52l99.41-291.02h78.12l101.95,291.02h-66.21l-22.46-67.58h-103.32l-21.68,67.58h-65.82ZM219.55,349.26h73.05l-8.79-26.17c-4.69-14.84-9.38-30.92-14.06-48.24-4.69-17.32-9.57-35.87-14.65-55.66-4.82,20.05-9.44,38.74-13.87,56.05-4.43,17.32-8.86,33.27-13.28,47.85l-8.4,26.17Z"/>
    <path class="cls-2" d="M460.57,216.64c-8.86,0-16.41-2.93-22.66-8.79s-9.38-12.95-9.38-21.29,3.12-15.43,9.38-21.29,13.8-8.79,22.66-8.79,16.44,2.93,22.75,8.79c6.31,5.86,9.47,12.96,9.47,21.29s-3.16,15.43-9.47,21.29c-6.32,5.86-13.9,8.79-22.75,8.79ZM431.27,463.52v-218.36h58.59v218.36h-58.59Z"/>
  </g>
</svg>