<?xml version="1.0" encoding="UTF-8"?>
<svg id="_レイヤー_1" data-name="レイヤー 1" xmlns="http://www.w3.org/2000/svg" viewBox="0 0 640 640">
  <defs>
    <style>
      .cls-1 {
        fill: #001e36;
      }

      .cls-2 {
        fill: #31a8ff;
      }
    </style>
  </defs>
  <rect class="cls-1" width="640" height="640" rx="120" ry="120"/>
  <g>
    <path class="cls-2" d="M151.27,465.51V174.49h59.57v241.6h125.59v49.41h-185.16Z"/>
    <path class="cls-2" d="M368.07,465.51v-218.36h56.64v38.09h2.34c4.03-13.41,10.77-23.6,20.21-30.57,9.44-6.96,20.28-10.45,32.52-10.45,6.64,0,12.95.65,18.95,1.95v52.34c-2.61-.78-6.42-1.46-11.43-2.05-5.01-.59-9.67-.88-13.96-.88-13.54,0-24.71,4.23-33.5,12.7-8.79,8.47-13.18,19.47-13.18,33.01v124.22h-58.59Z"/>
  </g>
</svg>