<?xml version="1.0" encoding="UTF-8"?>
<svg id="_レイヤー_1" data-name="レイヤー 1" xmlns="http://www.w3.org/2000/svg" viewBox="0 0 640 640">
  <defs>
    <style>
      .cls-1 {
        fill: #eee;
      }
    </style>
  </defs>
  <rect class="cls-1" width="640" height="640" rx="120" ry="120"/>
  <path d="M164.44,520c-12.22,0-22.69-4.35-31.39-13.06-8.7-8.7-13.06-19.17-13.06-31.39V164.44c0-12.22,4.35-22.69,13.06-31.39,8.7-8.7,19.17-13.06,31.39-13.06h311.11c12.22,0,22.69,4.35,31.39,13.06,8.7,8.7,13.06,19.17,13.06,31.39v311.11c0,12.22-4.35,22.69-13.06,31.39-8.7,8.7-19.17,13.06-31.39,13.06H164.44ZM164.44,475.56h133.33V164.44h-133.33v311.11ZM342.22,475.56h133.33v-155.56h-133.33v155.56ZM342.22,275.56h133.33v-111.11h-133.33v111.11Z"/>
</svg>