<?xml version="1.0" encoding="UTF-8"?>
<svg id="_レイヤー_1" data-name="レイヤー 1" xmlns="http://www.w3.org/2000/svg" viewBox="0 0 640 640">
  <defs>
    <style>
      .cls-1 {
        fill: #212121;
      }

      .cls-2 {
        fill: #eee;
      }
    </style>
  </defs>
  <rect class="cls-2" width="640" height="640" rx="120" ry="120"/>
  <path class="cls-1" d="M320,520c-27.33,0-53.17-5.25-77.5-15.75s-45.58-24.83-63.75-43c-18.17-18.17-32.5-39.42-43-63.75s-15.75-50.17-15.75-77.5,5.25-53.58,15.75-77.75,24.83-45.33,43-63.5,39.42-32.5,63.75-43,50.17-15.75,77.5-15.75,53.58,5.25,77.75,15.75c24.17,10.5,45.33,24.83,63.5,43,18.17,18.17,32.5,39.33,43,63.5s15.75,50.08,15.75,77.75-5.25,53.17-15.75,77.5-24.83,45.58-43,63.75c-18.17,18.17-39.33,32.5-63.5,43-24.17,10.5-50.08,15.75-77.75,15.75ZM320,479c8.67-12,16.17-24.5,22.5-37.5,6.33-13,11.5-26.83,15.5-41.5h-76c4,14.67,9.17,28.5,15.5,41.5s13.83,25.5,22.5,37.5ZM268,471c-6-11-11.25-22.42-15.75-34.25-4.5-11.83-8.25-24.08-11.25-36.75h-59c9.67,16.67,21.75,31.17,36.25,43.5,14.5,12.33,31.08,21.5,49.75,27.5ZM372,471c18.67-6,35.25-15.17,49.75-27.5,14.5-12.33,26.58-26.83,36.25-43.5h-59c-3,12.67-6.75,24.92-11.25,36.75-4.5,11.83-9.75,23.25-15.75,34.25ZM165,360h68c-1-6.67-1.75-13.25-2.25-19.75s-.75-13.25-.75-20.25.25-13.75.75-20.25,1.25-13.08,2.25-19.75h-68c-1.67,6.67-2.92,13.25-3.75,19.75s-1.25,13.25-1.25,20.25.42,13.75,1.25,20.25,2.08,13.08,3.75,19.75ZM273,360h94c1-6.67,1.75-13.25,2.25-19.75s.75-13.25.75-20.25-.25-13.75-.75-20.25-1.25-13.08-2.25-19.75h-94c-1,6.67-1.75,13.25-2.25,19.75s-.75,13.25-.75,20.25.25,13.75.75,20.25,1.25,13.08,2.25,19.75ZM407,360h68c1.67-6.67,2.92-13.25,3.75-19.75.83-6.5,1.25-13.25,1.25-20.25s-.42-13.75-1.25-20.25c-.83-6.5-2.08-13.08-3.75-19.75h-68c1,6.67,1.75,13.25,2.25,19.75s.75,13.25.75,20.25-.25,13.75-.75,20.25-1.25,13.08-2.25,19.75ZM399,240h59c-9.67-16.67-21.75-31.17-36.25-43.5-14.5-12.33-31.08-21.5-49.75-27.5,6,11,11.25,22.42,15.75,34.25s8.25,24.08,11.25,36.75ZM282,240h76c-4-14.67-9.17-28.5-15.5-41.5-6.33-13-13.83-25.5-22.5-37.5-8.67,12-16.17,24.5-22.5,37.5s-11.5,26.83-15.5,41.5ZM182,240h59c3-12.67,6.75-24.92,11.25-36.75s9.75-23.25,15.75-34.25c-18.67,6-35.25,15.17-49.75,27.5-14.5,12.33-26.58,26.83-36.25,43.5Z"/>
</svg>