<?xml version="1.0" encoding="UTF-8"?>
<svg id="_レイヤー_1" data-name="レイヤー 1" xmlns="http://www.w3.org/2000/svg" viewBox="0 0 640 640">
  <defs>
    <style>
      .cls-1 {
        fill: #ff61f6;
      }

      .cls-2 {
        fill: #470137;
      }
    </style>
  </defs>
  <rect class="cls-2" width="640" height="640" rx="120" ry="120"/>
  <g>
    <path class="cls-1" d="M81.75,463.65l104.49-148.83-95.12-142.19h69.14l31.84,48.83c6.77,10.42,12.17,19.7,16.21,27.83,4.03,8.14,7.94,16.18,11.72,24.12,3.91-7.81,7.94-15.82,12.11-24.02,4.17-8.2,9.63-17.51,16.41-27.93l32.42-48.83h67.58l-94.34,140.43,102.93,150.59h-70.7l-40.43-60.94c-6.77-10.28-11.95-18.68-15.53-25.2-3.58-6.51-7.26-13.35-11.04-20.51-3.78,7.03-7.49,13.84-11.13,20.41-3.65,6.58-8.92,15.01-15.82,25.29l-41.8,60.94h-68.95Z"/>
    <path class="cls-1" d="M431.98,467.36c-16.8,0-31.9-4.33-45.31-12.99-13.41-8.66-24.06-21.35-31.93-38.09-7.88-16.73-11.82-37.21-11.82-61.43s4.03-45.64,12.11-62.3c8.07-16.67,18.81-29.17,32.23-37.5,13.41-8.33,28.19-12.5,44.34-12.5,12.37,0,22.66,2.08,30.86,6.25,8.2,4.17,14.81,9.31,19.82,15.43,5.01,6.12,8.82,12.04,11.43,17.77h1.95v-109.38h58.59v291.02h-57.62v-34.96h-2.93c-2.73,5.86-6.64,11.75-11.72,17.68-5.08,5.93-11.72,10.91-19.92,14.94s-18.23,6.05-30.08,6.05ZM449.95,420.29c14.84,0,26.37-5.99,34.57-17.97,8.2-11.98,12.3-27.86,12.3-47.66s-4.07-35.61-12.21-47.46c-8.14-11.85-19.7-17.77-34.67-17.77s-27.02,6.09-34.96,18.26c-7.94,12.18-11.91,27.83-11.91,46.97s4,35.03,12.01,47.27c8.01,12.24,19.63,18.36,34.86,18.36Z"/>
  </g>
</svg>